<mxfile host="Electron" modified="2024-02-05T15:11:45.808Z" agent="Mozilla/5.0 (Windows NT 10.0; Win64; x64) AppleWebKit/537.36 (KHTML, like Gecko) draw.io/21.6.1 Chrome/112.0.5615.204 Electron/24.6.1 Safari/537.36" etag="noNSk8-aPxXD03S0qj2n" version="21.6.1" type="device">
  <diagram name="Page-1" id="PjIzhtM1v61S0GBILO6J">
    <mxGraphModel dx="1909" dy="1129" grid="1" gridSize="10" guides="1" tooltips="1" connect="1" arrows="1" fold="1" page="1" pageScale="1" pageWidth="850" pageHeight="1100" math="0" shadow="0">
      <root>
        <mxCell id="0" />
        <mxCell id="1" parent="0" />
        <mxCell id="bEsx-Dzr36lRBQds6V0_-2" value="" style="shape=image;verticalLabelPosition=bottom;labelBackgroundColor=default;verticalAlign=top;aspect=fixed;imageAspect=0;image=data:image/png,iVBORw0KGgoAAAANSUhEUgAAAMoAAAAaCAYAAAD2W8OHAAAAAXNSR0IArs4c6QAAAARnQU1BAACxjwv8YQUAAAAJcEhZcwAAEnQAABJ0Ad5mH3gAAAb+SURBVHhe7ZvPbxtFFMe/Nq1Ef9Gq0EpwQSKpcGuXAxdWHJBysnIIsmQulTggHCEhGUSEInJAQogDRkbk0D3GB/4AS5ZyiMyP5sLBAiQusRQpMQfECQkoLcVNmth9b37sr+x6dx33B+18qtfdmdmZnZ2ZN++9qZvp9/tDGAyGkWTV1WAwjMAoisGQAKMoBkMCjKIYDAnI7P/8+jBz40cMhxlwVD+kv4bDLIbPvYXBCx/LpwyGx5wsbvyEwYCUhBVFXElJWGN+/xqZ367KpwyGx5zsYMAWJEPKAhJSElIWVpwB5/16FYP1F7FPsnctR3IRd76/hN3vLmLn2zxufyNl55f3VHP3h3b1GI4di5BqWz2VDtlmFUlry+dnYPdUxgHaqKbsD7c5E92gIFE/21V3PALi7Y5vHGds+N4caCOsXyPr3wOC45NoLCZE9vZuBjf+Awlfh7h+ayjSN3eexJHnr+D4Sx/hROFDnLz8Pk7m38Wp/DyeKryN0/k3caZwBWcuvYFTp4+q5jzwQE9q8AJtFe0++n0prQplVFpOum8X5UMpkW3aSFe7g+Za+Bf27Bq6lqVSYxIyhon6WbTd8dDCA2XVsaAq9uwZlLp1bIjyDdSxiIJHi9qrQMup30J+seBTsrj694MDYzHJNRcge/zypzhrfYWnrS/wjPU5zluf4fwrn+Dcyx/g6IlzwJ1/gP2bJP+S3CKzQ1q0TzLo05VksIPskSdUc48XFilCZ3E5ZEfrYa3ZUfcPAz3YtQYqS1VMiXQby4sdT3oK1ZU6rEbNsZBF26uMRcyRnjVW9ZfG13/UyGaze6QMf5L85V73/iYhBSElwPAOXXelDNXVSauyfRIPwiSWGrTh0i7DZtmz0/BO5Jr0gOviM/eybFRb4dCimGEXQ7k+2jT3bMw4bZMEdh6/WddtyGtoX5nyEupWA8760bSXaX+tY6ms0gLuT6AN0adw1yHqu/39TIjqj7Ym6G2hiwrmvGZp6gLyZCE3t1U6BCs3LW/GrC8ImWOZLb/Ltz5irIN3LKLGK+p9acliQIudFUAI36vFD3V1lIPTqlzn7bMi8TN09SBMojL1wjQrd4gHodAsK3PNz+SxWPAs5FIX9Q1dJldZVFtxdGuryIm25M7YW9tEWbed0FVolOaBFVmnVelgcT44cdOYLVto1AJKt9qAVZ6l0vEZ97vD0P2Ruz+xvYmOlQv0bxq5KE+RFlupUcFSVbWQtr4mYo41HXLv5rGSao40oeMV8740UPSuFECIUgCtCLpMK49WDv0MK4hI+xUlHDbXQH1Fm2uiuBDYkfO4oAuLVeh5GYvygq/+VNX2pMlVWKJB7W6N3LGs+opTp7hArkVnE8ENc6q6hEqnCSdUocmpeRfVgyZlf7pb+kO0RSap5WjxJYvf3PpRjJhjijXXnYxJuXOTWVNkUVgBlDJoGZA7JvKUQmglYcXwpnUeX+Og6LBBpnmxoM0gSwHk6kqmZlEmpSlRfsJNZCR5Z3RcfGadzXQMB9vo4uA6YP/dDep7a010KnOJFtX9IG1/3G8uwhY7O8kKME9jlsTlCxt3h5g5dlw7jXDnDsEE15TrevkWv75npVHp4DNsRYSodCIqnpMUV6RXQTvIOqU36uiWeDFP8thP7o5+t48syoRgawMR1HMQT1bTCQYeNPJQoeILJhQHrOM2NqPOH6aqWKfx8h1cpKnvcC/nOIzJvY9cL17oWiFYaTzK4SgCXbXL5SiIJ83PxjGdgxW6IwfgSWH/lHaC2uFsrosKPlvrrtvX2+qquwmgdq7VKgfNZcyO2FR9sK+vbu8JvTU0O4GgmynO0WgE5iIsQI/isPUj5rgTPAkQXojHdRqXCawpTzCvFETHHEFlES6WV1S5fiYM765DnV3igFgH74IebIodRNcpYAyaR58ZD4kP0uGZWPLb5x2fbxLImKfRCATNPjjYpe9f1h9JVi6B+3eY7xZu14Ggm5Huons4QfMwzwHkgnLR2rB9C0r21XLK4+pHEDfHjZKnPPjOhHjHK+59KcgOdvkYmBe7WvBi4SsF8AXunM/lWrHoXpXv7dA1iArU2T/UR3V8MtGqqDwhBTRzamGRxZHmUeWXN5RLRoS0lQpSUooL3fiID7Mm6HoJxC47KmhmN6CFCi0G+Y2rmCOXYORB0SG/e5t8oSjFFXORV0epHCvmvYE0qVazoPrJUkK3vuEpj6sfwag5Jqx6C7ma+86GL7hPQHC8Yt6Xhsz1H94Z7v1xTf7Gi/8MM6KAf8ZCxfKHkgPOkWn+qYvOB//MheTos6/h7Ktfco7BMBb87yC1nF8ZHybMfwX+38IHFLTrqpSXSksfkDwIxuuXURSDIQFGUQyGRwDzPxwNhgQYRTEYEmAUxWBIgFEUgyEW4C4gPsfyiPoiWQAAAABJRU5ErkJggg==;" vertex="1" parent="1">
          <mxGeometry x="30" y="235" width="202" height="26" as="geometry" />
        </mxCell>
        <mxCell id="bEsx-Dzr36lRBQds6V0_-3" value="" style="shape=image;verticalLabelPosition=bottom;labelBackgroundColor=default;verticalAlign=top;aspect=fixed;imageAspect=0;image=data:image/png,iVBORw0KGgoAAAANSUhEUgAAANEAAAG0CAYAAACsdMKyAAAAAXNSR0IArs4c6QAAAARnQU1BAACxjwv8YQUAAAAJcEhZcwAAEnQAABJ0Ad5mH3gAACbsSURBVHhe7ZzPbyTHdcdrE9sw4HPsQwxEB1JRFrw5iOGhT3EEZLiKs/FhT4k3J+6Re+EhgE4Bg/yQhZCJL6QtwOvAPiwggIi0M/kDvPTB14UQiDzYkuyLz9FPS5P3qrp66lVVd1dN90zP9Hw/QGHYM9PVXT3zpl4Xqz63ZoTqkFv/8L/FXwBsB79XPAIAFqTzngiAbQM9EQAtQRAB0BKRzv30pz9VvPkZldlnVGafzbeL5z4rnvviF7+ovv5nX1cvvPDHxd4AbCciiH7yk5+oP//Wt9RXvvxlvV2+YP+4pdQH77+v3njjDfWNb3xD/exnT9XX/vRr6k9eeKF4AwDbh0jnuMehbkZ9+tln6tNPuXxalt8VjzbmvvSlL6lvfnNf/eIXv1C//e1v9XMAbCOiJ/rxj/9LvfjiX6if//znxTMhL774onrzzTfVb37zG739+S98QX3nb76jvvrVP9TbAGwdHESWH/3oRzMKjtnHH38y++jjj0356OPZh2X5aPbhhx/NPijKJ5/8bvbvp2ezd999t6hheUwO1Wx0el1sXc9OR2p2OCk2B4xst9lW6nCW1vTtuU59ItI52tbljTf+W71J9z26vPmGelKWN9WTJ2+qSVHKffRfG8D0gbq1f6Zuis1WdFlXBuNz/ozO1bjYrjqP6YNb6tatXfXwqniiitx29NTudSa4J+KAeOmlvyrLnbK8pO7ceUkd2HJwR+/DQbQ5UbQl0Bf94OJQTWYTdVg8BZZH0BNxQHDvY0tVLzSZPNH78JB3LIr0L+GDabHFTNWDW7eU+9TN2f78PTdnap9ev2VL1q/djTrb5/0e0FHi6PM5uFDq6qHa5fqdE9HnUR57X525B+ZfXu+1urqiROowT99S+7Qhjt/QbruP/Tt6HuNz2VtVENvfnIt7HYtrS69lt3tboMAp+cEPfjh79733nHug4j7Iuxf64IMPZ+9T4Xuif/ve92bvvPNOUYPD5HCmRqeUlRfwNkebk6Bzfm83r08PZ/PU3+Ty/nur7on0fYJ7rCr8cyKuT0eR8yzuOa5PZyM1mp/X5NT5O6wrSk0d5v4mbFd1u8Pt+vOYzKgnqr8nCvY352CPEb0+Ke3eIrx0jnoV+ljnvU/RA0V6oWnRE+l/yuq/PHZvq9HVY/XE/upeXqjD01M1evZ28Us7VZcXI3V7V2+onaNzdbRj/qYtdfQyffzle6vhX8eDZ6fq+ukR7ZXLVL3yUKnTR86+42N1OrpQl+WP7J563r44PnLOMYeaOg4n6mn5BLX7EV2jixPZG64Ucw7q4St0dSLXBwSE6RyFBN/72FLeA3Gh+6CxUzh89D56P4+dO+re6Eq9dc0bHDCH6u7R82rPBtb0Ul2M7qk7zqcj0hpOGxp4drJvcv+FAojgc1BX6uFucUxdnJtx3YYLdUDPL5y5NNQxsr8ilh26RsWfvbFzpF4+5HM+UBeHLy/4w7E9hKNz9Mi9ji1l78Ol6IFsYfQ/aKPsqDv3RuqCf9Jv3lbPRrfVLmXpdw9NYN28/UyN7t0pvvzmfmn38T1FaYI5D8pb0nim3m71q8034MUxnXKubyjoV/kpbV+fqmcHHGDV91zVdFHH6tm9PdKPQZCDABlEer6ccnqfO0Hvw+Uvxwe66H14Lp3+K2Tnzj2dvk2fPFaqCJjx3UMKrDP15PGV2rM5DgcZf5mdHoWDrIm9l58q+m5ST+INBqTCKWdKENIv89PZtU7zThbNsyrquDJd9RzdOzrpXx/cnKn7D/fURF/c+z2mlpuBd0/E4TBzep8nQe/D5X+mE10YDrzqKOL07aE6oLz6ns3b+Iv77LF6fEXpnRg+cr7M+kNs+geHYefIBlLiL/zVW6r82uq0hdM5bzTqQTFCNn0QpGBl4DNuXVU01XFx4LxOPTKlsaPT48aRNUHKeVj0KKj3oyP2p/bf5xshOge6Pvr26L43YphzvG2AUpeS//z+92e/+tU7euQtKO9/MPs/r3z8ySezfzz5p9kvf/nLooaQcOQsHIFi9CiQCUfzfm8USI5KydE5Rh+H9q0dibLH5mN4I2DlsamUx9Eja5HnNfG6AmrqMG2azOuJ1CXbHW7Xn0dkdM4fLfT219dCfF6mjvkxE9u9RYi5cxRE6q+//W31B1/+inmC7w/MX1E+//nPqX/+l39V3/27v1XP/dEfFc+CVHhk8eT2tTM6BzaRYGCBs7PPfe73TaEg4UCpKnaf2khbKWaAYj7SNi8Lj64l0ddxwTogeqLTs//QQWGCySy+M4MNdmEePUfb5m9bPlN//93vqueee66oBaSCnmgYiCACAOQj0jkAQD4IIgBagiACoCUIIgBagiACoCVidA7eOQDyEUEE7xwA+Yh0Tk9ApQLvHADpiJ4I3jkAFoCDyALv3PoRm8Xd6J3jGfAmCTcFs62XikjnaFsXeOcS6LKuDJq9czfq7PL2fIUwa7MuDkpDUEBuO3pq9zoT3BNxQMA7t8nsqKNz1zkxVsfUbV89foIv/pIIeiIOCHjnihcY/uX1XqurK0qkDvP0krxzHjvPx9Unsf3hnVsACpwSeOcIfZ5D8c4Z9HGcOgXB/uYc7DHgnWvGS+fgnRuad457Fq0VM/qiBMw5wDuXTpjOUUjAO1e8vuHeOf6B2WVrT4JSWADvXBbh6Bw9Wuec6H24FD2QLYz+B20UeOcMXdSRi7mPOVATaktmABXAO5eODCI9Xw7euYAN885NH1BvukcBlJzCecA7l4V3T8ThAO/cRnvn6Nqd0L3m6XFFDfDOdQ+lLiXwzplSHmcTvXPe8dyiq/ZHC7399bUQnxe8c02IuXPwzq0WvvGH7WfzCQYWODuDdy4XeOe2GdETwTu3WtATDQMRRACAfEQ6BwDIB0EEQEsQRAC0BEEEQEsQRAC0RIzOwTsHQD4iiOCdAyAfkc7pCahU4J0DIB3RE8E7B8ACcBBZ4J1bP2KzuHO9c3LWN+gakc7Rti7wziXQZV0ZNHvn6KlL5azWnai9h7vVE2Fz29FTu9eZ4J6IAwLeuc1mfO4uCecl+cos0wdLIeiJOCDgnSteYPiX13utrq4okTrM06vxzjExV0Jsf3Mu3kpfeOfqocApgXeO0Oc5IO+c254Ywf7mHOwx4J1rxkvn4J0bhnfOWSR4wl7uHOMPvHO5hOkchQS8c8XrG+udG6tz+kz4s5k9Uuo+HbtSaB8D3rkswtE5erTOOdH7cCl6IFsY/Q/aKPDOGfrwzjmwqouu5ZXuWdKBdy4dGUR6vhy8cwEVzrgsKupYhneuNfDOZeHdE3E4wDu30d45quNMfOu9OuGd6x5KXUrgnTOlPE6NM66qroCaOkybOvbOudtFEe+Hd65zxNw5eOdWC48swvaz+QQDC5ydwTuXS1/HBeuA6IngnVst6ImGgQgiAEA+Ip0DAOSDIAKgJQgiAFqCIAKgJQgiAFoiRufgnQMgHxFE8M4BkI9I5/QEVCrwzgGQjuiJ4J0DYAE4iCyr8c6ZWcCLTwBuu3+MZdTZjJ65vmUzoWOz0nM9eut2zUQ6R9u6DNY7NzS6dMB1WVcGzR69G3V2yZ6IYnBrNlGHFwfVy91z29FBu4N7Ig4IeOfA+rCjjs5dh8ZYHVPacPX4ycoDvoqgJ+KA6MI7p+EoL5cF+Eu4rSsu8lqWg87WM1+dWuuRq2XRczL7PZjW7E9ob5uzf7A6tPZ6SeoccEP36O08H1e5xPZfiUePAqekU+9cpW/Nroycv+avpqx30Mn7l3DfGo9cJd2cU93+/rY5L6eOGj9dJREH3OA9eoQ+jlOnINjfnIM9xjI8el4616F3TlPtWxudPiq3x8enauSs20910PEviXTOpXjkqml7TtX7G8eePK9zRV8Gj7aOu6F69OZwz6I1aUbHlIA5h2V69MJ0jkKiO+9ctW9NyDo00rojUgLucj2izrkmj1wDbc+pcn9tMwoNPlZLpenCcTdYj56BfzR32UKUJaMktJBmeR69cHSOHq1zTvQ+XIoeyBZG/4M2Cv0CLORby3HQxXRXdR65Rck5pwjXb9FXu4lFr5fPED165j7mQE2oLZkBVLBMj54MIj1frjvvnCbX2ZbooIs651I9crks6MUrqTiv67cioZV7vVwG6tGbPqDedI8CaNFfwiV79Lx7Ig6Hjrxz0wbfWi3OF6HGQRc453S3XeORa0XaOUWx5+X62+j6iIxw0evlOuCa2t90jBSfXFMdXXv06Fqf8P3kcUUNetTUG4EU7aD231+yR4+6+pJOvXN6FEeHly7+iI0YXPFGfOoddOH+erSG3mufs9u2iNGfKN2fk7+/fU9ZB71Z12l3qrxedTh1OgevbH/tMeJ1BdTUwcft3KPnHc8tuuq660xv0NdCjL5179ETc+fgnQNt4Bv/bbQXBQMLnJ1trneujk10w/V1zpt4rfpD9ETwzoE2bGtPJIIIAJCPSOcAAPkgiABoCYIIgJYgiABoCYIIgJaI0Tl45wDIRwQRvHMA5CPSOT0BlQq8cwCkI3oieOcAWAAOIgu8c8XmihCzuLeE2CzuZgeGpZ/PqQmRztG2LvDObQjT9s60ki7ryqDZO2fQZp6Upf657eig3cE9EQcEvHNgraAvuvZpsLixeGqdCHoiDgh45yL71Z6T2Q/euSV558bnsreqILa/ORdvpS9/RvRadruroMApgXeu3TnV7e9vm/Ny6qi8XjVEnGm17a87RqSuKDV16DZSm4JVo85NDL+ndmVr7XmYValOdSHB/uYc7DGi1yel3TV46Ry8c23OCd45YsneuXzMOcA7x12uB7xzEQbunVsYLXCBd654zUd+yQ113rVFyTmnCPDO9Q68c/DOpTFQ71xrtOIM3rliQwLvHOE605ra33SMFP9aUx1de+ea0KOm3gik2J/afx/eOXjnKnHqdA5e2f7aY8TrCqipg4/buXdOEBmdq7vO9EZ9LcToG7xzYI3h0VJ45yhoODuDd25d6OucN/Fa9YfoieCdA23Y1p5IBBEAIB+RzgEA8kEQAdASBBEALUEQAdASBBEALRGjc/DOAZCPCCJ45wDIR6RzegIqFXjnAEhH9ETwzgGwABxEFnjnis0VIWZxbwmxWdyNDgyeMW9uKnSRs777R6RztK0LvHMbwrS9M62ky7oySPHOTS+Vs1p3ovYe7lZPhM1tRwftDu6JOCDgnQPrxPjc1WWN1d1DpS5SzDMrIuiJOCDgnYvsV3tOZj9455bknYsQcyXE9jfn4q305c+IXstudxUUOCXwzrU7p7r9/W1zXk4dlderBrG61lDb/rpjROqKUlOHbiO1KVg16tz38Xv8eyJxj9N0Hm57YgT7m3Owx4hen5R21+Clc/DOtTkneOeIpXjnnEWCJ7fVdYINdY45B3jnuMv1gHcuwmC9c2N1Tt8x/q7NHil1n45tU8AktMAF3rniNR/5JTfAO1fd/i6O0dV5LggFxFO69le6Z0kH3jl459KAdy6OVpzBO1dsSOCdI1xnWlP7m46R4l9rqqNz79xUnYlvvVenHjX1RiDF/tT++/DOwTtXiVOnc/DK9tceI15XQE0dfNzuvXPedaMi3l93nWl/fS3E6Bu8c2CN4dFSeOcoaDg7g3duXejrnDfxWvWH6IngnQNt2NaeSAQRACAfkc4BAPJBEAHQEgQRAC1BEAHQEgQRAC0Ro3PwzgGQjwgieOcAyEekc3oCKhV45wBIR/RE8M4BsAAcRJbVeOeAJTajudYfIDCzjxeceAw6RKRztK3LRnrnpu39YSVd1pVBioON0ZaalGXvue3oqd2bTnBPxAEB79waQ1907ZaYTVTGAnWwRIKeiAOiG++c8Xs9mNpp9bzakv/2ViHqlYl2Jabdxzya6ffe+yPU+cMG52Abn8veqoLY/itxsG0jFDglnXrnipx9NHJ9bbyq0F2FSOiVifY+wK4ynL8nXJlYQcQfNmwHm1mhWXtPFOxffCbFMZbhYNtGvHSua+8cce84W1FU539LZ6gOtjaYc1img20bCdM5ColOvHMF6XKSOeE+Cxh8Butga4mWmSzPwbaNhKNz9Gidc6L34VL0QLYw+h+0a8vAHWwLskwH2zYig0jPl+vYO9dEkthwAeBgi7NkB9s24t0TcTh05J2LsqtujyjFesX+Xk+1Q6wz3HunQTrYGlgHB9s2QulNSafeuWIkKBw9MqNKfGg9UhYZnRP7BF6xKuzIHhVvBMwcy5Ry9EvXG3leE68roKYOM9LWtYPNJTI6F1wrub++FmL0rXsH2zYi5s7BO9cd/H+XbTTfbCPBwAJnZ+vpnevLhdbXccGmIHoieOe6Az3R9iCCCACQj0jnAAD5IIgAaAmCCICWIIgAaAmCCICWiNE5eOcAyEcEEbxzAOQj0jk9AZUKvHMApCN6InjnAFgADiILvHOrJTaLu9E7pz0ROsHWRc76Bn0g0jna1gXeuX78ayneuemlclbrTtTew93qibC57eip3ZtOcE/EAQHv3PoyPnd1WWN191Cpi7l5BfRA0BNxQMA7l+Ffi9Rhnl6Sdy5CzJUQ2x/euSVBgVMC75z9O9G/VlOHub+JrBp1VozG7onEPU7TebjtiRHsX3wmxTHgnesGL52Ddy6fVXvnnEWCJ7fVdYINdQ68c8sgTOcoJOCdS6QX79xYndP15us+e6TUfTq2TQGTgHeuc8LROXq0zjnR+3ApeiBbGP0P2rVl4N45VnVRDnile5Z04J3rFhlEer4cvHPZVNQB79x24N0TcTjAO6dJuQ9rqqNz79xUnYlvvVcnvHP9QOlNCbxzlnhdATV1mJG2rr1zznZRxPuDayX319dCjL7BO9cFYu4cvHPdwf93ge1nOwgGFjg7g3fOpa/jgk1B9ETwznUHeqLtQQQRACAfkc4BAPJBEAHQEgQRAC1BEAHQEgQRAC0Ro3PwzgGQjwgieOcAyEekc3oCKhV45wBIR/RE8M4BsAAcRBZ451ZLbBZ3rTOB0V4FnWCbgtnWvSPSOdrWBd65fvxrzd65G3V2yV6FYqBnNlGHFwfVy8Nz29FTuzed4J6IAwLeuXVlRx2du2KRsTo+Hamrx0/wxe+RoCfigIB3LsO/FqnDPL0a79zO83H1SWx/eOeWBAVOCbxz9u9E/1pNHeb+JrJq1LmHid0TiZWqCeehj1N1XxTsX3wmxTHgnesGL52Ddy6fVXvn5nDPcnBxqCZGX5QAvHPLIEznKCTgnUukF++cgdOvXbb2ZMkbCS1wgXeuS8LROXq0zjnR+3ApeiBbGP0P2rVliN45cx9zoCbUlswAKoB3rltkEOn5cvDOZbNC79z0AfWmexRAySmcB7xznePdE3E4wDunSbkPa6qja+8cBcDJxUidHlfUAO9cP1B6UwLvnCVeV0BNHWakrWPvnHc8t+iqg2sl99fXQoy+wTvXBWLuHLxz3cE3/rD9bAfBwAJnZ/DOufR1XLApiJ4I3rnuQE+0PYggAgDkI9I5AEA+CCIAWoIgAqAlCCIAWoIgAqAlYnQO3jkA8hFBBO8cAPmIdE5PQKUC7xwA6YieCN45ABaAg8gC71z/xGZ2N7roSswsbEzAXi0inaNtXTrzzvXtMevy+D21pdlFZ9C2Hnf5exW57ej7M9wAgnsiDgh45zYM+qJrYQnLHIunwAqhICj54Wuvzd5779ez119/PalwOvfKq69GlVkmDXGKzjHSlFmHE7twj5+3zzkLxhIW6cWPb9CqqPI1ry6t1ZKv1dUVJVKHedqkauL4nqLKvsfibjefh7luVacX29+ci5suFteZXms+HmBEEHXrnSMCj1laEElXnQ0e+WX0v3xRIh61Ybvo6oNIE+xfXPPiGHDR5eOlc0vwzi1CxFUHF92ygIuuLcHAAkdRl965RYi56uCiWyJw0bUiHJ2jx+F452IM0UXXHrjoFkcGkZ4vNxDvXIyBuuhaAxddK4Ihbk7n5r1PB945ce+yZO9cDPf4Q3TRNQEX3fKhVKakW+8cY0fWqJRDRnb4msths3cu9pw/AlZJ7Pg84GSPb0o5+qXrjTyvidcVUFOHGWnr2EUniIzOBddK7q+vhRh9M3XMj5nY7i1GzJ2Dd265wAA0TIKBBc7O1tM7FwMuOtA/oieCd265oCcaJiKIAAD5iHQOAJAPggiAliCIAGgJggiAliCIAGiJGJ2Ddw6AfEQQwTsHQD4indMTUKnAOwdAOqIngncOgAXgILLAO9c/sVncUiQSQXsidNJtCmZbrxSRztG2LvDOReipLc3euRt1dnlbUdgVn99EHV4cqP2qlXW57ej7M9wAgnsiDgh45zaJHXV07opFxur4dKSuHj/BF39VUBCUwDtHiNTIvFZXV5RIHeZpk6otzztXUKG5iu0P71x7RBDBO+etAt0475xBHyc5wIprXhwD3rl8vHQO3rlaZ1wy/Xnnbs72jVLY6IsSgHeuLcHAAkcRvHOb6Z3jRX+7bO1xByJSgHeuFeHoHD3CO7dp3rkbdbZ/Sx2oCbUlM4AK4J1bHBlEer4cvHOb5p2bPqDedI8CKDmF84B3rhXBEDenc/PeB965tffOUQCcXIzU6XFFDfDOLR9KZUrgneN6I89r4nUF1NRhRto69s55x3OLrjq4VnJ/fS3E6Bu8c7mIuXPwzi0X2H6GSTCwwNkZvHNNwDsH5oieCN655YKeaJiIIAIA5CPSOQBAPggiAFqCIAKgJQgiAFqCIAKgJWJ0Dt45APIRQQTvHAD5iHROT0ClAu8cAOmIngjeOQAWgIPIAu9c/8RmcUuRSATtidBJty5y1jdYNiKdo21d4J2L0FNbmr1z9NSlclbrTtTew93qibC57ej7M9wAgnsiDgh45zaL8bm7JHys7h4qdTE3r4BlQ0FQAu8cIVIj81pdXVEidZinTaq1bO+cX4cltj+8c+0RQQTvnLcKdBO9c257YgT7F9e8OAa8c/l46Ry8c7XOuGRW7Z1zFgmesJc7x/gD71xbgoEFjiJ45zbNOzdW5yarULNHSt2nY1cK7WPAO9eKcHSOHuGd2zTvnAOruigHvNI9Szrwzi2ODCI9Xw7euU3zzrUG3rlWBEPcnM7Nex9459beO0d1nIlvvVcnvHPLh1KZEnjnuN7I85p4XQE1dZiRto69c+52UcT7g2sl99fXQoy+wTuXi5g7B+/ccoHtZ5gEAwucncE710RfxwXriOiJ4J1bLuiJhokIIgBAPiKdAwDkgyACoCUIIgBagiACoCUIIgBaIkbn4J0DIB8RRPDOAZCPSOf0BFQq8M4BkI7oieCdA2ABOIgsQ/POaV/AQGcex2Z717oVGO1f0Mm5KZiV3QkinaNtXTrzzlWxbi6zLs+np7Y1++lu1Nkl+xeKQaLZRB1eHFQvI89tx7p9piskuCfigIB3bojsqKNzV0AyVsenI3X1+MlWfvG7JOiJOCC497GlqhfiFa+MNgRVRRH/OpXLBMzqSp7JfItXs149VLv8vF07oFdg2vdS8X9F93mZgXl063PRdTv7p6zGrDwf4uZsf16ff7yctlURqcM8bUQj4vgNv/J2H/t3ynnsPB9XpMT2N+firQjmz4Jey2730KDAKenUO+evqGxwuF2fRlxzZc5uV1fO6/NXZAYrNG3+n5L3R89n4H46Qh+n6voE+5tzsMeAn26Ol8517Z1Ld7jtHJ07r1Pq8fKhUs/eFr++1e65qbq8GHk+uXNFX5IFGaqfbg73LAcXh2piNEcJmHOAny4kTOcoJDrxzi3gcBPpC6cHHpXuuZu36a/QmGM1UNkM1k9n4PRrl+0+WZJHQote4KfzCUfn6NE650Tvw6XogWxh9D9oo+T418xy693H9+ajRzndyFK0W0P005n7mAM1obZkBlAB/HQhMoj0fLmOvXMpDjfdk9CX9uk8Pbh5+1nxVwIVPrnrtxYMrYH66aYPqDfdowBKTuE84KeL4t0TcTh05J2b5jrcnC+t/rAyAkCnGZR+ub40On4kI6zGPR9b35D8dHRNT/i+8biiBvjpFodSlJJOvXM1/rVytIlfK0aH9GiPfT+P8ojRHvN+MZBU51Mr6k2fsRCeD6NHr2x9VMo2ZLYtSk0dZqStYz+ddzy36Krrrie9QV8LMfoGP51FzJ2Dd2494Bt/WIE2h2BggbOzzfHOpQI/HVgeoieCd249QE+0WYggAgDkI9I5AEA+CCIAWoIgAqAlCCIAWoIgAqAlYnQO3jkA8hFBBO8cAPmIdE5PQKUC7xwA6YieCN45ABaAg8gC79zmEJvF3eidKzEzrrdssvXSEOkcbesC71wLempbs3fOoM087lL3KnLbsW6f6QoJ7ok4IOCdGyj0RddyEhY3Fk+BDqAgKPnha6/N3nvv17PXX389qXA698qrr8aVWQwvrDMhRsUs+DJph1NsTuEvGhMLwGz64Sz8EgvIDKJu2n+SkM5Vng8hFgr6x8tpWxWROszTJlULFiqalzX2PRZ3u/k8zIK6qtOL7W/OxU0Xi8+CXms+3rARQQTv3Bz9pQnqG4p3rj6INMH+5hzsMaLXJ6XdA8RL5+CdMwzfO5ePOQd450KCgQWOInjnhu2dWxgtcIF3ziccnaNHeOeYIXrn2gPvXIgMIj1fDt65oXrnWgPvXJRgiJvTuXnvA+/cvAkb7p1rAt65xaEUpQTeObOfxY6S2VK2IbNtUWrqMCNtHXvnBJHRubrrSW/U10KMvsE7ZxFz5+CdWw9g+9ksgoEFzs7gnesKeOe2AdETwTu3HqAn2ixEEAEA8hHpHAAgHwQRAC1BEAHQEgQRAC1BEAHQEjE6B+8cAPmIIIJ3DoB8RDqnJ6BSgXcOgHRETwTvHAALwEFkgXduc4jN4m70zvHMeJOc6yJnfYNFEekcbesC71wLempbindueqmc1boTtfdwt3oibG471u0zXSHBPREHBLxzw2R87gQZ/XX3UKmLuXkFLEjQE3FAcO9jS1UvxCteGW0Iqooi/nUqp/+bVZPawMlLTq8eql1+3v4U6pWV9r1UxK/ajTrb5+UD5tGtz8XYPef7p6yyrDwfQohT/OPltK2KSB3m6VtqnzbE8Rt+5e0+9u/U84i5EmL7m3PxVvryZ0GvZbd7aFDglMA7N2fY3jnCbU+MYH9zDvYY8M7N8dI5eOcMQ/XOOYsET26ra/ceqhFzDvDOhYTpHIUEvHND9c6N1Tl9VvyZzR4pdZ+ObVPAJLTABd45n3B0jh6tc070PlyKHsgWRv+DNkqOVw3euZV751jVRdf4Svcs6cA7FyKDSM+Xg3cO3rkK4J2L4t0TcTjAO1fWNyjv3FSdiW+9Vye8c4tDKUoJvHNmPwuPeJX1USnbkNm2KDV1mJG2rr1z3vWhIt5fdz1pf30txOgbvHMWMXcO3rn1gP/vAtvP5hAMLHB2Bu9cV/R1XLBKRE8E79x6gJ5osxBBBADIR6RzAIB8EEQAtARBBEBLEEQAtARBBEBLxOgcvHMA5COCCN45APIR6ZyegEoF3jkA0hE9EbxzACwAB5FlFd65lJnVZvZ0g0OtxMwe3oaJw7GZ27hO/SPSOdrWZeneuQYCh9oyYNNOV560LuvKIMU1x2gbj7u8vYrcdvTU7nUjuCfigIB3bkDQF/3ggpe6T9TC3hZQS9ATcUB05p0jzK9gUehXS658tD45u2TArCTlfeYCDfuewnOm3xc65+bY91U7C/Q5VXjSBueaG58n9eqx/eGaS4QCp6RT7xwRrIbUrjN6rkzMTZ4+GrnOOT/3tysmq5xzMtcPjllFxJM2bNecWYlae08U7F98PsUx4JqL46VzXXrnMlxw944b9UvVzrk5/Ot48OxUXTvCk3SG6pprA1xzKYTpHIVEJ965DBdc6JMLqXTOFTw72Te5/0IBRAzWNdcSLW2Ba66OcHSOHq1zTvQ+XIoeyBZG/4M2xlJccE0kaK5qGbhrbkHgmqtHBpGeL9eRd65rF1wDey8/VVqHtls36FADXHNx4JprxLsn4nDoyDtn3W1tXHCZ7BzZQEr8hXfvq+z5Dso11wBcc91A6UpJp945jR1ZK8qh74KTI2sWOeoUeY8Y5QpftyNdfr0S59ycN9p9bSnPo8YTV1VXQE0dps1du+ZcIqNz/miht7++FmL0Da65GGLuHLxz/cEjizD8bCbBwAJnZ8PwzsE1B1aD6IngnesP9ESbiwgiAEA+Ip0DAOSDIAKgJQgiAFqCIAKgJQgiAFoiRufgnQMgHxFE8M4BkI9I5/QEVCrwzgGQjuiJ4J0DYAE4iCzwzq03sVncjddJeyJ0Qq6LnPUNukCkc7StC7xzmXRZVwYp3rnppXJW607U3sPd6omwue3oqd3rRnBPxAEB79xwGJ+7P0ZjdfdQqYu5eQV0QNATcUDAO1dxHP7l9V6rqytKpA7z9JK8cxFiroTY/vDOJUKBUwLv3JC9c4TbnhjB/sXnUxwD3rk4XjoH79zwvHPOIsGT2+o6614T3rkUwnSOQgLeOVuG4J0bq3P6fPhzmj1S6j4de54qJ6AFLvDO1RGOztGjdc6J3odL0QPZwuh/0MaAdy5Cz945VnVRKnCle5Z04J2rRwaRni8H71wt/EWEdw44ePdEHA7wzs33vdlw79xUnYlvvVcnvHPdQOlKCbxz831tKc+jxhlXVVdATR2mzV1755ztooj3+6OF3v76WojRN3jnYoi5c/DO9QePLML2s5kEAwucncE714a+jgv6QvRE8M71B3qizUUEEQAgH5HOAQDyQRAB0BIEEQAtQRAB0BIEEQAtEaNz8M4BkI8IInjnAMhHpHN6AioVeOcASEf0RPDOAbAAHEQWeOfWm9gs7sbrpL0KOiE3ZYtnWy8Lkc7Rti7wzmXSZV0ZNHvnbtTZJXsVzOdKEaUOLw6ql4fntqOndq8bwT0RBwS8c0NhRx2du86JsTqmbvvq8ZOt/+J3SdATcUDAO1dxHP7l9V6rqytKpA7z9Gq8czvPx9Unsf3hnUuEAqcE3rmBe+cIfZyq+6Jg/+LzKY4B71wcL52Dd2543rk53LNorZjRFyUA71wKYTpHIQHvnC1D8M4Z+Adml609uQM2WuAC71wd4egcPVrnnOh9uBQ9kC2M/gdtDHjnIvThnTP3MQdqQm1ZbMQT3rl6ZBDp+XLwztVS4YzLoqKOZXjnpg+oN92jAEpO4TzgnWvEuyficIB3br4v/YpvsneOAuCE70uPK2qAd64bKF0pgXduvq8t5XnUOOOq6gqoqcO0uWPvnHc8t+iq/dFCb399LcToG7xzMcTcOXjn+oNv/GH72UyCgQXOzuCdawO8c9uG6IngnesP9ESbiwgiAEA+Ip0DAOSDIAKgJQgiAFqCIAKgFUr9P5otstzmZwu3AAAAAElFTkSuQmCC;" vertex="1" parent="1">
          <mxGeometry x="360" y="30" width="209" height="436" as="geometry" />
        </mxCell>
        <mxCell id="bEsx-Dzr36lRBQds6V0_-4" value="" style="shape=image;verticalLabelPosition=bottom;labelBackgroundColor=default;verticalAlign=top;aspect=fixed;imageAspect=0;image=data:image/png,iVBORw0KGgoAAAANSUhEUgAAA5MAAAEhCAYAAADicvTeAAAAAXNSR0IArs4c6QAAAARnQU1BAACxjwv8YQUAAAAJcEhZcwAAEnQAABJ0Ad5mH3gAAI4tSURBVHhe7f2/a/O+9/+Pn8d3uf6RwEUJdMl2/QWBDulWeA2FbHlPXUrGDB1Dl27dAt2ytUMhy2ft5qVQSiH/SKbnV0eSFVlWYsmW4yS938DX1SaubR0d/Tg/JP+32Wz+RwAAAAAAAAAAQAT/P/0/AAAAAAAAAAAQDIxJAAAAAAAAAADRwJgEAAAAAAAAABANjEkAAAAAAAAAANHAmOyEFU3+/KF/T2v9Ozh31k//6M+fiaj5RKwm4nr/6NAqlLwcjTh0O1L3+2Mdk+MQxMlzXHqVml/Q36+f6J9sE+dahwAAAHYBYxIAACphg2BEi/EbbTYbczwP9dcAAAAAAL+QamNSRkCK3vj8sL3yq0n1OYo1Pf0T36V26ZvnPHy05qgp1R88xwBEs3qlBQ1ofg/rMUdFE62+5d+T6N1BetyI+BGOcb07+pAOlmdK0kJMpBPRfwAAOHaqjcnhs/bCf9F8IH4fzOlrp1d+TG/6Oz6+xB8sRodJ71m9LsTt5+IZM1q+Y0pjjPbRJ82/tnWy2VzTKyZ9AESx/vkU/17S3576/bfDhmR/eWPGgs3mjcbZlProWxJTjoh/zYmm/XM1svS4dUs0kxMOAAAAx06raa69uw96GxNl08eWo2Erkrbk9R1d3QwoW74XJjQyarpzkuNZz2J5RfOjNHDLc5SHuOih93mN9QBpzhGTA/1NkXQe6PXTLU0zIZO3D7orTICH9PxxR8U5sft8nvs2Kq9zjrnWtrwsX3PdUl25cinXh/xb+XfOufaJOkrrc26oe/vKEkJMvRVl43W0hOifDxOFdqPPAfUbTZpyBNWbwS1H++2oNdyMAbu80e2jmlA57zrPrV/u2zeFfmRI9zz5z5bUzJfn1LFPD+q2D5doOYe2o1A9rWY1EX/LDlzLc9u7e5GO3cVDvB5IquSnvw/qJ91r1dBNm9WkT8ubL0e3AAAAHDMHWjP5ST9NRpgqZAramK7FeNu7uqGBM6HpXfAk5ztwkBMTi1uiF+NxzyOsvolDJj3E/e+ZPpejt+KzW2tAlYOtHiDNNd/E07rwhKbogd5sZvRtXyuYNb0vhSUpJiHVWXl83z5NL0M83wHljbje8vaBLr5UxJsj2PK64uRBNqXH/FwpvxF9zrfyyyPepefjyIg4l97UeRv2ZCxG2/OG9/JerrOBn/lRWt4zx/AOIabeFjQSsvmebZ8vm/adcsTonwUbJyP2qPBz2KlmMfUbSuJyVNUb00U7sgy+PuuHLHfzibOckIu6Gufl5eP6tVQfQe0jhhA5M+55SmEC9SWj7zpCkTh6xWUVz1c0amq2jz2EyTmwHQXraQjKSTq4uSoaVqtH6SgMH9NsAuTXu6Ibbz+Zjys3dJU/kElv3UjHcVOGzxv6iO+EAQAAdEjLxuSaZHaYPfi0gEpxvVYT6N5fuhQTGjvVtff3Uvy7NWhlpDKfAax/xDdElyZ/rRy5693NxGRgR/osT1qN17gnI6P2IL96nFImjLqXqgFSP8eYLWKDL4oYwPqdeMwXhar82/XTgzTE33ye71fP7LGivOHXyyi7ZOOtR7J6vOvR1vR0K+Qn7mlPMPKIt88zzxN0c+vhtZzEfRpPRv68TvREOiNc2QcSWW/7n4+J1D9GG5IDNrgtuTPR9RtI6nJUXa+TdmRS/NWEW1y1kMZfK3oijI1bYQlwXRWqStyrWHUh7SOe6npTFM4TBsNMnFgVCVt/c6czoItooWzx3bdo1NRoH3sJk3NoOwrW0xBKYxM/BzsihJ0vLbc6TtoQ+fXoTgm+2E/qcWU8q6H3AAAAzpZWjUmTatnq4JOnuJoZEl27E5DehZgi5KjzxQxA/JRTfwLkGiAy/ctEhnZ4ln1II1g8li/iVpNBZaG0pzk3xA16YvX5UzbW9pY37nqFa/kcDnry4ivHUFWyk1KnotMumRUq8U08pTMiKIrrIareqp8vmvetIVn26MfXbxipy1F1vW7bUUrW70uhfWOaBRgble0jmtB6K59Xmd2xmhAHxutF93Nq3DcB1XIObUcReloDdoKqdap5f9skClyBdDQU+8lcd306BAAA4PeS2JgspoH1p5fSk1/0uCdG77Jo2xvK0LBSlHS0Ug68fL7cqGdB0qG8/hbfFDfWMGtmzFF/zUs4Q3rWmxzxRFjdt37qFlM9uV+TDCYsRlZZ1SEnhtGTuNTXU9ie+ea4zoamE8D09RaufxlNp+obv4zaqY9QzqUdpURF786MPMVaGBp25K4tDq9X3bYj7qN4TefDxZcTDa/nBA2Tn9tP7jKoAQAA/HYSG5NOGliqbcL3IKNKPKnuW4OjHOHF2G/Sj3rEDm5O5+JdGQcXVzLdkb+XuzQOLswAzQMtr4/idKttOequeYmlR3cf9j1VuaIjLNJ4FlRGnpRcRGGtstpHbP2lvp7Cl4andtesRyGqqdfbhkSKdpOo3gRx+jeQO/WqpW+++7VTHyGcRTtqARlpO0GkEWz1kwZeI5gbkgfo77vRq47ake7HFyO1ftXOPKi7u3CM/Ib3vG5U95MySwSvxgEAAFDmQBvwtIWOKlmbs+SHXFJiUllVOlL2/U7vS6Kbq57aqCc3tszaQu19rZvyWEJNQtwIoVp/UwVHWNQg7zOm9qO8yuU0UJem6Y4uia+XbwThibCqyW3N1D+5EY8wMB5XyhmR1NvepN7q6d/wOY/EuRG41PUbyrm0o/So9ds6K+Jk0Gvf3TXYbEj2p8JUb8uQdKNhqfUqlNB21ERPfeh+vFReVy4WcgMgdqr63iccKT/Z/6pUV5ni2vLeBwAAAE6T0zYmdYorG4cuMvpkTdpkRGAxpSnpAZG9vtmURlMxuBr0pME2wuTgXDeNSm/4sngwk3zpGV5e0lh8XGA1KW3FriYh/vJVMXzmCTRHZFwDY0UTaxdK5X2eUj9R2Cbt9fRGEIvijo4sw9FiQPOXumtx83oZyTQ1dx1oFEnrra7+cSSODcpyfaeu3zDOpx0lR+8oXDL8xXMfQ+TUB7+uYZo5KaytG5J8C15zb0fDUutVOGHtKEJPA/HdtyyXLWpdI+NzWMTKT5UnWz7SozBC21oLCgAA4LSpNiZ5PYz0dPKEQvzOA5tOJ200+RETeZOWmh+RF1Qbp+zwluqdCks7Vhrvuvb6CuwNXlSUR6XFyWfqL+lGbxtfB7Xz6PZ6ctv5j3u60N8bhs/0QrcFeYi5Gs2/3PdEhsIRGY7QWmWRxytd2+tu5NbuwvD01Ic7KQ8i9fV4R803YRZP++Y6ai1uXbko1EY8TMMNJRLXW339Y4MydyBYbTN1fQRyPu0oNSoFt9QuX6/bXVseRXHt++hzbm36opC7lsqfnNel8FHjlSkyU8S5ltpsplhvqfUqmMB2FKynofB99StS8vvt6/+UHBl/vxYrP/WqrQUtMv9SADaW8+dS60e384Na/YuZb3A5tYbla58bvsMSAABAO/y32Wz+p38G4BfBm1qo91fivWYAKGQkTRor7a9/BAAAAMDpc+JrJgGoh0p9bLrxDgAAAAAAAL8XGJPg97GayBSqwfwe0RcAAAAAAABqcoTGpHqnVr5uYufx69ZPQC5NMet7Rgu5Nb4/vfW3yRnl9R7B5e1Kfsdeb5CLn2N/PgAAACAOrJkEAAAAAAAAABAN0lwBAAAAAAAAAEQDYxIAAAAAAAAAQDQwJgEAAAAAAAAARANjEgAAAAAAAABANDAmO0Ht6PfvCfv1/RbUTrITUfOJWE3E9f7RoVUoeTkaceh2VN6Jc3Icgjh5jkuvUvML+vv1E/2TbeJc6xAAAMAuYEwCAEAlbBCMaDF+o81mY45nvKgUAAAAAL+YamNSRkCK3vj8sL3yq0n1OYo1Pf0T36V26ZvnPHy05qgp1R88xwBEs3qlBQ1ofg/rMce8tzU/8G7E9jCRvyONhvfu6EM6WJ4pSQs59vICAAAwVBuTw2fthf+i+UD8PpjT106v/Jje9Hd8fIk/WIwOk96zel2I28/FM2a0fMeUxhjto0+af23rZLO5pldM+gCIYv3zKf69pL899ftvhw3J/vLGjAWbzRuNsyn10bckRvfjt0QzOQCfO7+tvAAAcPq0mubau/ugtzFRNn1sORq2ImlLXt/R1c2AsuV7YUIjo6Y7Jzme9SyWVzQ/St5ReY6KghY99L7IqB4gzTkjEo/rwV2TVT/Kun66pWkmZPL2QXeFCfCQnj/uqDgndp/Pc99G5XXOMdfalpfla65bqitXLuX6kH8r/8451z5RR2l9zg11b19ZQoipt6JsvI6WEP3zYaLQbvQ5oH6jSVOOoHozuOVovx21hpsxYJc3un1UEyrnXee59ct9+6bQjwzpnif/2ZKa+fKcOvbpQd324RIt59B2FKqn1awmfVrefDmybkiV/PT3Qf2ke60aumnTSnkBAAC0yoHWTH7ST5MRpgqZgjam66GY5Fzd0MCZ0PQueJLzHTjIiYnFLdGL8bjnEVbfxCGjaf8P9b9n+lyO3orPbq0BVQ62eoA013wTT+vCExp3TdaMvu1rBbOm96WwJAdzqs7K4/v2aXq5ve/XnGS5yhO0gPJGXG95+0AXXyrizRFseV1x8iCb0mN+rpTfiD7nW/nlEe/S83FkRJxLb+q8DXsyFqPtecN7eS/X2cDP/Cgt75ljeIcQU28LGgnZfM+2z5dN+045YvTPgo2TEXtU+DnsVLOY+g0lcTmq6o3poh1ZBl+f9UOWu/nEWU7IRV2N8/Lycf1aqo+g9hFDiJwZ9zylMIH6ktF3HaFIHL3isornKxo1NdvHHsLkHNiOgvU0jOHzhj7iO6U9BMivd0U33n4yH1du6Cp/JJPeupGO46akLy8AAIC2admYXJPMDrMHnxZQKa7XagLd+0uXYkJjp7r2/l6Kf7cGrYxU5jOA9Y/4hujS5K+VI3e9u5mYDOxIn+VJq8n37cnIqG24rh6nlAmj7qVqgNTPMWaL2OCLIgawfice80WhKv92/fQgDfE3K2e5d/eiJlavntljRXnDr5dRdsnGW49k9XjXo63p6VbIT9zTnmDkEe/FQ3kyzxN0c+vhtZzEfRpPRv68TvREOiNc2QcSWW/7n4+J1D9GG5IDNrgtuTPR9RtI6nJUXa+TdmRS/NWEW1y1kMZfK3oijI1bYZhyXRWqStyrWHUh7SOe6npTFM4TBsNMnOhrbzbrb+50BnQRLZQtvvsWjZoa7WMvYXIObUfBetoZIfLr0Z0SfLGf1OPKeFZD7wEAAJwtrRqTJtWy1cEnT3E1MyS6dicgvQsxRchR54sZgPgpp/4EyDVAZPqXiQypew1urqrLL41g8Vi+iFtNBpWF0p7m3BA36InV50/ZWNtb3rjrFa7lczjoyYuvHENVyU5KnYpOu2RWqMQ38ZTOiKAoroeoeqt+vmjet4Zk2aMfX79hpC5H1fW6bUcpWb8vhfaNaRZgbFS2j2hC6618XmV2x2pCHBivF93PqXHfBFTLObQdRejpsSMdDcV+Mtddnw4BAAD4vSQ2JotpYP3ppfTkFz3uidG7LNr2hjI0rBQlHa2UcyY+X27UsyDpUF5/i2+KG2uYNTPmqL/mJZwhPetNjngirO5bP3WLqZ7cr0kGExYjq6zqkBPD6Elc6usptlHjFLjOhqYTwPT1Fq5/GU2n6hu/jNqpj1DOpR2lREXvzow8xVoYGnbkri0Or1fdtqPUhMnP7Sd3GdQAAAB+O4mNSScNLNU24XuQUSWeVPetwVGO8GLsN+lHPWIHN6dz8a6Mg4srme7I38tdGgcXxpDggZbXR3G61bYc9de8xNGjuw/7nqpc0REWaTwLKiNPSi6isFZZ7SO2/lJfT+FLw1O7a9ajENXU621DIkW7SVRvgjj9G8idetXSN9/92qmPEM6iHbWAjLSdINIItvpJA68RzA3JA/T33ehVd+0oNTHyG97zulHdT8osEbwaBwAAQJkDbcDTFjqqZG3Okh9yMwCTyqrSkbLvd3pfEt1c9dRGPbmxZdYWau9r3ZTHEmoS4kYI1fqbKjjCogZ5nzG1H+VVLqeBujRNd3RJfL18IwhPhFVNbmum/smNeISB8bhSzoik3vYm9VZP/4bPeSTOjcClrt9QzqUdpUet39ZZESeDXvvursFmQ7I/FaZ6W4akGw1LrVehhLajJnqaCLkBEDtVfe8TjpSf7H9VqqtMcW157wMAAACnyWkbkzrFlY1DFxl9siZtMiKwmNKU9IDI0btsSqOpGFwNetJgG2FycK6bRqU3fFk8mEm+9AwvL2ksPi6wmpS2YleTEH/5qhg+8wSaIzKugbGiibULpfI+T6mfKGyT9np6I4hFcUdHluFoMaD5S921uHm9jGSamrsONIqk9VZX/zgSxwZlub5T128Y59OOkqN3FC4Z/uK5jyFy6oNf1zDNnBTW1g1JvgWvubejYan1KpywdhShpy2h1jUyPodFrPxUebLlIz0KI/Qs1oICAABITrUxyethpKeTJxTidx5QdTppo8mPZ/2J/91yu1Ebp+zwluqdCks7Vhrvuo7eCewNXlSUR6XFyWfqL+lGbxtfB7Xz6PZ6ctv5j3u60N8bhs/0QrcFeYi5Gs2/3PdEhsIRGY7QWmWRxytd27v5ya3dheHpqQ93Uh5E6uvxjppvwiye9s111FrcunJRqI14mIYbSiSut/r6xwZl7kCw2mbq+gjkfNpRalQKbqldvl63u7Y8iuLa99HnnL4cg1HuWip/cl6XwkeNV6bITBHnWv3ljbhvsd5S61Uwge0oWE9DMeMv67GWeL4W2CNnJUfG36/Fyk+9amtBi8y/FICN5fz51PrR7fygVv8SWV4AAADd899ms/mf/hmAX4R6HyG/vxLvNQNAISNp0llzOusAAQAAANAdJ75mEoB6qNTHphvvAAAAAAAA8HuBMQl+H6uJTKEazO8RfQEAAAAAAKAmR2hMcvqhXiOx7/h16ycgl6aY9T2jhdwa35/e+tvkjPJ6j+DydiW/Y683yMXPsT8fAAAAEAfWTAIAAAAAAAAAiAZprgAAAAAAAAAAooExCQAAAAAAAAAgGhiTAAAAAAAAAACigTEJAAAAAAAAACAaGJOdoHb0+/eE/fp+C2on2Ymo+USsJuJ6/+jQKpS8HI04dDsq78Q5OQ5BnD7rJ/pny/asdjP9Bf29qb9j6RsAAAAcChiTAABQCRsEI1qM32iz2ZjjGS8qTUPvjj60TN/G+jMAAAAAHD3VxqSMgFgeY+uwvfKrSfU5ijU9/RPfpXbpm+c8fLTmqCnVHzzHAESzeqUFDWh+D+sxx7y3NT/wbsRWOAk5G2fAMzVvIW4GAMZ0AAA4ZqqNyeGz9sJ/0Xwgfh/M6Ut7kMte+TG96e/4+BJ/sBgdJr1n9boQt5+LZ8xo+Y6Rxxjto0+af23rZLO5pldM+gCIYv3zKf69pL899ftvhw2c/vLGjAWbzRuNsyn10bck5ffJuZwB8DUnmvaRUg4AAMdKq2muvbsPmbKUTR9bjoatSNqS13d0dTOgbPleGGhl1HTn4OtZz+Ku3xFHaSCT5yiPadFz7POiasPOnCMGS/1NkXQe2fXTLU0zIZO3D7orTICH9PxxR8U5sft8nvs2Kq9zjrnWtrwsX3PdUl25cinXh/xb+XfOufaJOkrrc26oe/vKEkJMvRVl43W0hOifDxOFdqPPAfUbTZpyBNWbwS1H++2oNdyMAbu80e2jmlA57zrPrV/u2zeFfmRI9+xtzJbUvi8vkT5Hyzn0vqF6Wk0rcq5ql/r7oH7SvVYN3bRZTYSs2GFteap7dy/Skb14aHZtAAAA7XCgNZOf9NPmKCBT0MZ0Lcaf3tUNDZyBtnfBg+934EAkJha3RC/GE5xHWH0Th0x6TPvfM30uR2/FZ7fWoCcH2z4tb77M9aR3WX+9hSc0RY/sZjOjb/tawazpfSksSTEoV2fl8X37NL0M8QQHlDfiesvbB7r4UhFvjmDL64qTB9mUHvNzpfxG9Dnfyi+PeJeejz324lx6U+dt2JOxGG3PG97Le7nOBn7mR2l5zxzDO4SYelvQSMjme7Z9vmzad8oRo38WbJyM2KPCz2GnmsXUbyiJy1FVb0wX7cgy+PqsH7LczSfOckIu6mqcl5eP69dSfQS1jxhC5My45ymFCdSXjL7rCCWY9PocJufA+wbraVPqyjmgXfau6MbbT+bjyg1d5f1k0rWuyik8uLkqOjtXj9IxGj6GAwAAOCQtG5Nrktlh9uDTAirF9VpNoHt/6VIMtHaqa+/vpfh3a9DKSGU+A1j/iG+ILk3+Wjly17ubicnAjvRZnrQaL2pPRkbtQW/1OKVMGHUvVVaKfo4xW8QGXxQxgPU78ZgvClX5t+unB2mIv/k8wa+e2VlFecOvl1F2ycZbj2T1eNejrenpVshP3PPDkl8e8fZ5qnmCbm49vJaTuE/jycif1/HqS2eEK/tAIutt//MxkfrHaENywAa3JXcmun4DSV2Oqut10o5Mir+acIurFtL4ixGjQISxcStmxlxXhaoS9ypWXUj7iKe63hSF84TBMBMnVkWG1t/c6QzoIloo4aTX5zA5h943WE8b0EzOIe2yR3dc4W4/qceV8ayG3odQGotZ7ux4IXqTlmrLTmkAAAC1aNWYNKmWbQ0+kjzF1cyQ6FqOg5ZXtXchht4cdb6YAYifcupPgFwDRKYlmcjQDk+rD2kEi8fyRdxqMqgslPY054a4QU+sPn/Kxtre8sZdr3Atn8NBT1585RiqSnZSvVR02iWzXPg+g0Y6I4KiuB6i6q36+aJ53xqStsGtiK/fMFKXo+p63bajlKzfl0L7xjQLMDYq20c0ofVWPq8yu2M1IQ6M14vuh9KOPlfLOfS+EXpal4PIWSAdDcV+Mtddnw61ATt91XrRfHxpO+oNAACgDomNyWIaWH96KT35RY97YvQui7a9oQwNK0VJRyvlQMTny416FiQdyutv8U1xYw2zZsYc9de8hDOkZ73JEU+E1X0rUhsrqJ7cr0k6uRcjq6zqkBOW6LSi1NdT2J7q5rjOhqYTwPT1Fq5/GU2n6hu/jNqpj1DOpR2lREWVzow8xVoYGnbkLj1d6XO37ciQSM5h7dLtJ3cZ1G3AKcV/6OHiy4n+txv1BgAAUI/ExqSTBpZkm/D9yKgST6r71uAoB1wx9pv0ox6xY53TuXhXxsHFlUx35O/lLo2DCzNg8UDL66M4zWtbjjbWvPjo0d2HfU9VrugIS09FZ6o99UouorBWWe0jtv5SX0/hS8NTu2vWoxDV1OttQyJFu0lUb4I4/RvInXrV0jff/dqpjxDOoh21gIzwnSDSCLb6SQOvEcwNnNb7+670ubt2ZEgk55h2ObzndaO6n5RZIi2/GkePW4uRWq9rZ1pgN2UAADheDrQBT1voqJK1OUt+yCUWJpVVpSNl3+/0viS6ueqpjXpyY8usLdTe17opjyXUJMSNEKr1N1VwhEUN8j5jaj/Kq1xOA3Vpmu7okvh6+UYQngirmtzWTP2TG/EIA+NxpZwRSb3tTeqtnv4Nn/NInBuBS12/oZxLO0qPWr+tsyJOBr323V2DzQZOfypM9UMYkkxX+hx63yZ6uocYOfO50qnqe59wZLuU/a9KdZUpri3vfWDGrdLzHTIqCgAAIJbTNiZ1iisbhy4y+mRN2mREYDGlKekBkb2g2ZRGvKjToCcNthEmB+e66Xl6w5fFg5nkS8/w8pLG4uMCq0lpK3Y1CfGXr4rhcx6RcQ2MFU2sXSiV93lK/URhm7TX0xtBLEYF2bAMR4sBzV/qrsXN62Uk09TcdaBRJK23uvrHkTg2KMv1nbp+wzifdpQcvaNwyfAXz30MkVMfq0mfppkwZOzUyhgDJyHd6HPofSP0NJRIOat1jYzPYRHbLlV5suUjPQpjrtW1oBqfnNXeCy1HRQEAANSm2pjkdRrS08kTCvE7d/Q6nbTReC4m8iYtNT8iL6g2TtnhLdU7FZZ2+DPede0FFdgbvKgoj0qLk8/UX9KN3ja+Dmrn0e315LbzH/d0ob83DJ/phW4L8hBzCJp/ue+JDIUjMhyhtcoij1e6ttehyK3dheHpqQ/fe8YqSX093lHzTZjF0765jlqLW1cuCrURD9NwQ4nE9VZf/9igzB0IVttMXR+BnE87So1KwS21y9frdteWR1Fc+z76nFuboCjkrqXyJ+d1KXzUeGUKG13mfmzZWONMQU870ufQ+wbraSCxcpYZN/Inf78W2y7Vq7YWtMj8SwGC6y0UljO/lsWSc4r+HgAAQHv8t9ls/qd/BuAXwZs8qPdXlndBBeB3IiNpcvJ+uGgjAAAAAE6XE18zCUA9VOpj0413AAAAAAAA+L3AmAS/j9WEeEfDwfwe0RcAAAAAAABqcoTGpHrHVL5eYudRY13OaQO5NMWs7xkt5Nb4/vTW3yZnlNd7BJe3K/kde71BLn6O/fkAAACAOLBmEgAAAAAAAABANEhzBQAAAAAAAAAQDYxJAAAAAAAAAADRwJgEAAAAAAAAABANjEkAAAAAAAAAANHAmOwEtaPfvyfs1/dbUDvJTkTNJ2I1Edf7R4dWoeTlaMSh21F5J87JcQji9Fk/0T9btme1m+kv6O9N/R1L3wAAAOBQwJgEAIBK2CAY0WL8RpvNxhzPeFFpGnp39KFl+jbWnwEAAADg6Kk2JmUExPIYW4ftlV9Nqs9RrOnpn/gutUvfPOfhozVHTan+4DkGIJrVKy1oQPN7WI855r2t+YF3I7bMNjJ+dFFO4wx4piQtxIpUI/oPAADHTbUxOXzWXvgvmg/E74M5fWkPctkrP6Y3/R0fX+IPFqPDDHyr14W4/Vw8Y0bLd0xpjNE++qT517ZONptresWkD4Ao1j+f4t9L+ttTv/922JDsL2/MWLDZvNE4m1IffUtrrCYjEqPcmaPHrVuimZxwAAAAOHZaTXPt3X3IlKVs+thyNGxF0pa8vqOrmwFly/fChEZGTXdOcjzrWdz1Oz7vqDxHRUGLHnpfZFQPkOacXZMCd01W/Sjr+umWppmQydsH3RUmwEN6/rij4pzYfT7PfRuV1znHXGtbXpavuW6prly5lOtD/q38O+dc+0QdpfU5N9S9fWUJIabeirLxOlpC9M+HiUK70eeA+o0mTTmC6s3glqP9dtQabsaAXd7o9lFNqJx3nefWL/ftm0I/MqR7nvxnS2rfl5dIn6PlHHrfUD2NQDzrA49xb8Jo1x/Vpqpd6u+D+kn3WjV002Y16dPy5svRLQAAAMfMgdZMftJPkxGmCpmCNqbroZjkXN3QwJnQ9C54kvMdOMiJicUt0YvxuOcRVt/EIaNp/w/1v2f6XI7eis9urQFVDrZ6gDTX9E0IeELjrsma0bd9rWDW9L4UluRgTtVZeXzfPk0vt/f9mpMslzPPFASUN+J6y9sHuvhSEW+OYMvripMH2ZQe83Ol/Eb0Od/KL494l56PIyPiXHpT523Yk7EYbc8b3st7uc4GfuZHaXnPHMM7hJh6W9BIyOZ7tn2+bNp3yhGjfxZsnIzkbFP8jZ1qFlO/oSQuR1W9MV20I8vg67N+yHI3nzjLCbmoq3FeXj6uX0v1EdQ+YgiRM+OepxQmUF8y+q4jlGDS63OYnAPvG6ynMQjj9HZKmdDp5mt0A9pl74puvP1kPq7c0FXeTyZe6zp83tBHfCcMAACgQ1o2Jtcks8PswacFVIrrtZpA9/7SpZjQ2Kmuvb+X4t+tQSsjlfkMYP0jviG6NPlr5chd724mJgM70md50mpG+J6MjNqG6+pRTAKEUfdSNUDq5xizRWzwRREDWL8Tj/miUJV/u356kIb4mzVL6d29qInVq2d2VlHe8OtllF2y8dYjWT3e9WjbSZQ9wcgj3ouH8mSeJ+jm1sNrOYn7NJ6M/Hmd6Il0RriyDySy3vY/HxOpf4w2JAdscFtyZ6LrN5DU5ai6XiftyKT4qwm3uGohjb9W9EQYG7fCMOW6KlSVuFex6kLaRzzV9aYonCcMhpk40dfebNbf3OkM6CJaKOGk1+cwOYfeN1hPI1BZJsV71yekXfbojivc7Sf1uDKe1dB7AAAAZ0urxqRJtWx18MlTXPOBdkjXchy0vKq9CzFFyFHnixmA+Cmn/gTINUBk+peJDKl7DW6uqssvjWDxWL6IW00GlYXSnubcEDfoidXnT9lY21veuOsVruVzOOjJi68cQ1XJTkqdik67ZFaoxGfQSGdEUBTXQ1S9VT9fNO9bQ7Ls0Y+v3zBSl6Pqet22o5Ss35dC+8Y0CzA2KttHNKH1Vj6vMrtjNSEOjNeL7ofSjj5Xyzn0vhF6GozKmhjM7517t4x0NBT7yVx3fToEAADg95LYmCymgfWnl9KTn8Shugu9y6JtbyhDw0pR0tFKOWfi8+VGPQuSDuX1t/imuLGGWTNjjgRrXioZ0rPe5Ignwuq+FamNFVRP7tckgwmLkVVWdciJYXBqcE7q6ym2UeMUuM6GphPA9PUWrn8ZTafqG7+M2qmPUM6lHaVERe/OjDzFWhgaaaJnu+hKn7trR3LTneSRzpB26faTuwxqAAAAv53ExqSTBpZqm/A9yKgST6r71uAoR3gx9pv0ox6xY53TuXhXxsHFlUx35O/lLo2DC2NI8EDL66M4zWtbjgSbHgTRo7sP+56qXNERlp6KzlR76pVcRGGtstpHbP2lvp7Cl4andtesRyGqqdfbhkSKdpOo3gRx+jeQO/WqpW+++7VTHyGcRTtqARnhO0GkEWz1kwZeI5gbkq33913pc0f3ldFe0cZf0mX2xLTL4T2vG9X9pMwSSZNqDQAA4Lw40AY8baGjStbmLPkhNwMwqawqHSn7fqf3JdHNVU9t1JMbW2Ztofa+1k15LKEmIW6EUK2/qYIjLGqQ9xlT+1Fe5XIaqEvTdEeXxNfLN4LwRFjV5LZm6p/ciEcYGI8r5YxI6m1vUm/19G/4nEfi3Ahc6voN5VzaUXrU+m2dFXEy6LXv7hpsNiT7U2GqH8KQZLrS59D7NtHTMl5HqY4i8oZX/Htpx1W5ARCf53ufcGS7lP2vSnWVKa4t730AAADgNDltY1KnuLJx6CKjT9akTUYEFlOakh4QOXqXTWk0FYOrQU8abCNMDs510/P0hi+LBzPJl57h5SWNxccFVpPSxEBNQvzlq2L4nEdkXANjRRNrF0rlfZ5SP1HYJu319EYQi1FBNizDZh77vF5GMk3NXQcaRdJ6q6t/HIljg7Jc36nrN4zzaUfJ0TsKlwx/8dzHEDn1wa9rKG0Ac3BDUtGNPofeN0JPA+CdTV0naR5FzB2o7jppta6R8TksYtulKk+2fKRHYYSmXQsKAADgXKg2JsUkR3lEeUIhfucBVXtJG43nnvUn/nfL7UZtnLLDW6p3Kizt8Ge86zp6J7A3eFFRHssb3F/Sjd42vg5q59Ht9eS28x/3dKG/Nwyf6YVuC/IQczWaf7nviQyFIzIcoXU92690be/mJ7d2FxMUT32UvN4hpL4e76j5Jsxi7YnnQ63FrSsXhdqIh2m4oUTiequvf2xQ5g4Eq22mro9AzqcdpUal4Jba5et1u2vLoyiufR99zunLMRjlrqXyJ+d1KXzUeGUKG13mfmzZWONMQU870ufQ+wbraUvIjBv5k79fi22X6lVbC1pk/qUAwfUWiplvcLvVGpavfW74DksAAADt8N9ms/mf/hmAX4R6HyG/vxLvNQNAISNp0llzuGgjAAAAAE6XE18zCUA9VOpj0413AAAAAAAA+L3AmAS/j9VEplAd/N1tAAAAAAAAnBFHaExy+qFeI7Hv+HXrJyCXppj1PaOF3Brfn9762+SM8nqP4PJ2Jb9jrzfIxc+xPx8AAAAQB9ZMAgAAAAAAAACIBmmuAAAAAAAAAACigTEJAAAAAAAAACAaGJMAAAAAAAAAAKKBMQkAAAAAAAAAIBoYk52gdvT794T9+n4LaifZiaj5RKwm4nr/6NAqlLwcjUA7OheOS69S8wv0dP1E/+ROtOdahwAAAHYBYxIAAAAAAAAAQDTVxqSMgDjvwNLHxHJBribV5yjW9PRPfFf+ohnmOQ8frTlqSvUHzzEAoDnmva35gXcjpsc3/h6jnHt39LHZ0GbzTEP9UX3cd3FiTAcAgGOm2pgcPosBggeJL5oPxO+DOX3J3zf0XBo1xvSmv+PjS/zBYnSY9J7V60Lcfi6eMaPlO0YeY7SPPmn+ta2TzeaaXjHpAwA0gA3J/vLGjAWbzRuNsyn10bekxYy/+SHGYTpnObMhOaLF+M2U+WtONO37HNMAAACOgVbTXHt3H/Q2Jsqmjy1Hw1YkbcnrO7q6GVC2fC8MtDJqunPw9axnMes/tkdpIJPnKI9p0UPv86Jqw86cIwZL/U2RdB7Z9dMtTTMhk7cPuuvpDyVDev64o8JHpefz3LdReZ1zzLW25WX5muuW6sqVS7k+5N/Kv3POtU/UXn6fc0Pd21eWEGLqrSgbr6MlRP98mCiGG30OqN9o0pQjqN4MbjkO0Y5YL1x56usHVcoO3IiTfa3o9lFNqJx3nefWL/ftm0I/MqR79jZmS2rmy3Pq2Cfjuu3DJVrOoe0oVE/r0KO7GQ+qDeRcJT/9fVA/6V6rhm7arCZCVuywtjzVvbsX6chePDS7NgAAgHY40JrJT/ppcxRYvYrBekzXYvzpXd3QwBloexc8yfkOHIjExOKW6MXyBqsIq2/ikEmPaf97ps/l6K347NYa9ORg26flzZe5nvTi66+38ISm6JHdbGb0bV8rmDW9L4UlKQbl+8qcI75vn6aXIZ7ggPJGXG95+0AXXyrizRFseV1x8iCb0mN+rpTfiD7nW/nlEe/S83FkRJxLb+q8DXsyFqPtecN7eS/X2cDP/Cgt75ljeIcQU28LGgnZfM+2z5dN+045YvTPgo2TEXtU+DnsVLOY+g0lcTmq6o3ppB21g5yQi7oa5+Xl4/q1VB9B7SOGEDkz7nlKYQL1JaPv2oJ29IrLKp6vaNTUbB97CJNzYDsK1tP6rH8+xb+X9De6r2IC5Ne7ohtvP5mPKzd0ld/bpLdupOO4GcopPLi5Kjo7V4/SMRo+hgMAADgkLRuTa5Ljnj34tIBKcb1WE+jeXzHMFlNde38vxb9bg1ZGKvMZwPpHfCOGZjMylyN3vbuZmAzsSJ/lSavxovZkZNQe9FaPU8qEUfdSZaXo5xizRWzwRREDWL8Tj/miUJV/u356kIb4m88T/OqZPVaUN/x6GWWXbLz1SFYPDWhesnzX9HQr5Cfu+WHJL494+zzVPEE3tx5ey0ncp/Fk5M/rePWlM8KVfSCR9bb/+ZhI/WO0ITlgg9uSOxNdv4GkLkfV9TppR20gjI1bMTPmuipU1fC5+HtQ+4inut4UhfOEwcDBsKrI0PqbO50BXTQQtO++RaOmRvvYS5icQ9tRsJ7WxejPvZBEHULktyP6qceV8ayltlQai7m47HghepOWastOaQAAALVo1Zg0qZZtDT6SPMU1H1qHdO1OQHoXYoqQo84XMwDxU079CZBrgMj0LxMZ2uFp9SGNYPFYvohbTQaVhdKe5twQN+iJ1edP2VjbW9646xWu5XM46MmLrxxDVclOqpeKTrtkVqjEN/GUzoigKK6HqHqrfr5o3reGpG1wK+LrN4zU5ai6XrftKCXr96XQvjHNAoyNyvYRTWi9lc+rzO5YTYgD4/Wi+zk17puAajmHtqMIPY1BRjt1Gmm/ZWM1Rzoaiv1krrs+HWoDdvqqdbn5+NIk6g0AAKAtEhuTnKakBz1x9KeXckOeosc9MTKqVDQGlaFhpSjpaKUciPh8uVHPgqRDef0tvimmDJk1M+ZIueZlF0N61psc8URY3bd+6hZTPblfkwwmLEZWWdUhJ4bRk7jU11PYnurmuM6GphPA9PUWrn8ZTafqG7+M2qmPUM6lHaVERe/OjDzFWhgaduSuLQ6vV922I7JSSWVa6s2S+uLedZ0lYfJz+8ldBnUbcErxH3q4+HLW5TaLegMAAGiHxMakmExYg16abcL3I6NKPKnuW4OjHOHF2G/Sj3rEDm5O5+L1JoOLK5nuyN/L9SeDCzNg8UDbn2Yy3WpbjrRrXnbTo7sP+56qXNGTBmk8CyojT0ouorBWWe0jtv5SX0/hS8NT64bqUYhq6vW2IZGi3SSqN0Gc/g3kTr1q6Zvvfu3URwhn0Y5aQEbaThBpBFv9pIGjZrkheYD+vhu96q4d+WiSph4jv+E9rxvV/aTMEkmTar0TPW4tRmq9rp1p0WydKAAAgDY50AY8baGjStbmLPkhl1iYVFaVjpR9v9P7kujmqqc26smNLbO2UHtf66Y8llCTEDdCqNbfVMERFjXI+4yp/SivcjkN1KVpuqNL4uvlG0F4Iqxqclsz9U9uxCMMjMeVckYk9bY3qbd6+jd8ziNxbgQudf2Gci7taAd6bVcd1PptnRVxMui17+4abDYkOe1SSLcdQ9KNhqXWq1BC21ETPY1BRUq9yxhMSqzvfcKR8pP9r0p1lSmuLe99YMat0vO5egAAAOCYOG1jUqe4snHoIqNP1qRNRgQWU5qSHhDZC5pNaTQVg5RBTxpsI0wOznXTqPSGL4sHM8mXnuHlJY3FxwVWk9JW7GoS4i9fFcNnnkBzRMY1MFY0sbZvV97nKfUThW3SXk9vBLEo7ujIMhwtBjR/qbsWN6+XkUxTc9eBRpG03urqH0fi2KAs13fq+g3jfNqRdDqJvzbGnzGgaqJ3FC4Z/uK5jyFy6mM16dM0c1JYjRzai0iqNfd2NCy1XoUT1o4i9LQB8vUZQu6+bAq1rpHxOSxi5afKky0f6VEYc8nXgnrwybmsBwAAAI6JamOS18NITydPKMTv3NHrdNJGkx8xkTdpqfkReUG1ccoOb6neqbCUCmS869oLKrA9vCrKo9Li5DP1l3Sjt42vg9p5dHs9ue38xz1d6O8Nw2d6oduCPMRcjeZf7nsiQ+GIDEdorbLI45Wu7XUocj2OMDw99eFOyoNIfT1+afebMIunfXMdtRa3rlwUaiMepuGGEonrrb7+sUGZOxCstpm6PgI5m3Yk5PciHtqsv+x/00yvyayHSsEttcvX63bXlkdRXPs++pxbm6Ao5K6l8qfiufKo8a7B3GgvrLmXm68U6y21XgUT2I6C9TQQNkbd+42I0239BrySI+Pv12Llp161taBFtsN4tZ5PrR/dzg9qjx/6lTD5dVP09wAAANrjv81m8z/9MwC/CN7kQb2/srwLKgC/ExlJk5P3w64DBAAAAMBpcuJrJgGoh0p9bLrxDgAAAAAAAL8XGJPg97GaEO9oWP/F3wAAAAAAAIAjNCbVO6by9RI7jxrrck4byKUpZn3PaCG3xvent/42OaO83iO4vF3J79jrDXLxc+zPBwAAAMSBNZMAAAAAAAAAAKJBmisAAAAAAAAAgGhgTAIAAAAAAAAAiAbGJAAAAAAAAACAaGBMAgAAAAAAAACIBsZkJ6gd/f49Yb++34LaSXYiaj4Rq4m43j86tAolL0cj0I7OhePSq9T8Aj1dP9E/uRPtudYhAACAXcCYBAAAAAAAAAAQTbUxKSMgzjuw9DGxXJCrSfU5ijU9/RPflb9ohnnOw0drjppS/cFzDABojnlva37g3Yjp2Tn+Hlk/3rujj82GNptnGuqPGmEinb45BAAAgGOi2pgcPosBggeJL5oPxO+DOX3J3zf0XBo1xvSmv+PjS/zBYnSY9J7V60Lcfi6eMaPlO6Y0xmgffdL8a1snm801vWLSBwBoABuS/eWNGQs2mzcaZ1Pqo29pgYHTh/ORyGg7OvS4dUs0kxMOAAAAx06raa69uw96GxNl08eWvagrkrbk9R1d3QwoW74XJjQyarpzkuNZz2J5RfOj5B2V56goaNFD74uM6gHSnDMi8bge1LPsv1YY66dbmmZCJm8fdNfTH0qG9PxxR4WPSs/nuW+j8jrnmGtty8vyNdct1ZUrl3J9yL+Vf+eca5+ovfw+54a6t68sIcTUW1E2XkdLiP75MFEMN2oRUL/RpClHUL0Z3HIcoh2xXrjy1NcPqpQduBEn+1rR7aOaUDnvOs+tX+7bN4V+ZEj3PPnPltTMl+fUsU/GdduHS7ScQ9tRqJ52RJX89PdB/aR7rRq6abOa9Gl58+XoFgAAgGPmQGsmP+mnyQhTxepVDNZjuh6KSc7VDQ2cCU3vgic534GDnJhY3BK9WF5gFWH1TRwymvb/UP97ps/l6K347NYaUOVgqwdIc8038bQuPKERk47xm3XejL7tawWzpvelsCQHc7qvdF/zffs0vdze92tOslzlCVpAeSOut7x9oIsvFfHmCLa8rjh5kE3pMT9Xym9En/Ot/PKId+n5ODIizqU3dd6GPRmL0fa84b28l+ts4Gd+lJb3zDG8Q4iptwWNhGy+Z9vny6Z9pxwx+mfBxsmIPSr8HHbUIqZ+Q0lcjqp6YzppR+0gJ+SirsZ5efm4fi3VR1D7iCFEzox7nlKYQH3J6Lu2oB294rKK5ysaNTXbxx7C5BzYjoL1tCsC5Ne7ohtvP5mPKzd0lfeTJr11Ix3HTRk+b+gjvhMGAADQIS0bk2v6+RT/2YNPC6gU12s1ge79pUsxobFTXXt/L8W/W4NWRirzGcD6R3xDdPk3f8By5K53NxOTgR3pszxpNfm+PRkZtQ3X1eOUMmHUvVQNkPo5xmwRG3xRxADW78RjvihU5d+unx6kIf5m5Sz37l7UxOrVM3usKG/49TLKLtl465GsHk7lKlm+a3q6FfIT97QnGHnEe/FQNhB4gm5uPbyWk7hP48nIn9eJnkhnhCv7QCLrbf/zMZH6x2hDcsAGtyV3Jrp+A0ldjqrrddKO2kAYG7fTTNZVoaqGz8Xfg9pHPNX1piicJwyGmTjR195s1t/c6QzoooGgffctGjU12sdewuQc2o6C9TQK5cTbRhKbrJcMkV+P7pTgi/2kHlfGsyNpSwAAAI6CVo1Jk2rZ6uCTp7iaGRJduxOQ3oWYIuSo88UMwBqQ60+AXANEpn+ZyJC61+Dmqrr80ggWj+WLuNVkUFko7WnODXGDnlh9/pSNtb3ljbte4Vo+h4OevPjKMVSV7KTUqei0S2aFSnwTT+mMCIrieoiqt+rni+Z9a0iWPfrx9RtG6nJUXa/bdpSS9ftSaN+YZgHGRmX7iCa03srnVWZ3rCbEgfF60f2cGvdNQLWcQ9tRhJ6GYvYsyA+OoHIEt34kNgjpaCj2k7nu+nQIAADA7yWxMcmD3NaD2p9eyg15ih73xMioUtEYVIaGlaKko5VyzsTny416FiQdyutv8c0lmcCkwKyZMcch1rwM6VlvcsQTYXXfZhOG6sn9mmQwYTGyyqoOOTGMnsSlvp5iGzVOgetsaDoBTF9v4fqX0XSqvvHLqJ36COVc2lFKVPTuzMhTrIWhYUfu2uLwetVtOyrSo7sPTpsVbb9WrnOo/Nx+cpdBDQAA4LeT2JgUk4mCF7X9HedkVIkHVjsNSI7wYuw36Uc9Ygc3p3Otfz5pcHEl0x35e/5dfGAMCR5o+9NMpltty3GoNS88UbDvqcoVHWGRxrOgMvKk5CIKa5XVPmLrL/X1FL40PFlvNSlENfV625BI0W4S1ZsgTv/ULo9q6Zvvfu3URwhn0Y5aQEbaThBpBFv9pIHXCOaG5AH6+270qrt2lJoY+Q3ved2o7idllkiaVGsAAADnxYE24GkLHVWyNmfJD7kZgEllVelI2fc7vS+Jbq56aqOe3Ngyawu197VuymMJNQlxI4Rq/U0VHGFRg7zPmNqP8iqX00BdmqY7uiS+Xr4RhCfCqia3NVP/5EY8yrNfWG+bhCb1Vk//hs95JM6NwKWu31DOpR3tQK/LrINav62zIk4GvfbdXYPNhmR/Kkz1tgxJNxqWWq9CCW1HTfQ0Aq1/3mUMcgMgdqr61lVGyk/2vyrVVaa4trz3AQAAgNPktI1JneLKxqGLjD5ZkzYZEVhMaUp6QOToXTal0VQMrgY9abCNMDk4102j0hu+LB7MJF96hpeXNBYfF1hNSluxq0mIv3xVDJ95As0RGdfAWNHE2r5deZ+n1E8Utkl7Pb0RxKK4oyPLcLQY0Pyl7lrcvF5GMk3NXQcaRdJ6q6t/HIljg7Jc36nrN4zzaUfS6ST+2hh/xoCqid5RuGT4i+c+hsipD35dwzRzUliNHNqLSKo193Y0LLVehRPWjiL0tC653IVB6NvkR61rZHwOi1j5qfJky0d6FEZo0rWgAAAAzoZqY5LXw0hPJ08oxO88oOp00kaTH8/6k9j3tqmNU3Z4S/VOhaUdK413XUfvBLaHV0V5VFqcfKb+km70tvF1UDuPbq8nt53/uKcL/b1h+EwvdFuQh5gz0PzLfU9kKByR4QitVRZ5vNK1vZuf3NpdGJ6e+nAn5UGkvh5vQPEmzOJp31xHrcWtKxeF2oiHabihROJ6q69/bFDmDgSrbaauj0DOph0J+b2IhzbrL/vfNNNrMuuhUnBL7fL1ut215VEU176PPuf05RiMctdS+VPxXHnUeNdgbrQX1twvb8R9i/WWWq+CCWxHwXoaCBujhfsJZb7kFNUduxMrOTL+fi1WfupVWwtaZP6lAPbzqfWj2/lBrf7FzDe43WoNy9tew3dYAgAAaIf/NpvN//TPAPwi1PsI+f2VeK8ZAAoZSZPOmtNZBwgAAACA7jjxNZMA1EOlPjbdeAcAAAAAAIDfC4xJ8PtYTWQK1WB+j+gLAAAAAAAANTlCY5LTD/UaiX3Hr1s/Abk0xazvGS3k1vj+9NbfJmeU13sEl7cr+R17vUEufo79+QAAAIA4sGYSAAAAAAAAAEA0SHMFAAAAAAAAABANjEkAAAAAAAAAANHAmAQAAAAAAAAAEA2MSQAAAAAAAAAA0cCY7AS1o9+/J+zX91tQO8lORM0nYjUR1/tHh1ah5OVoBNrRuXBcepWaX6Cn6yf6J3eiPdc6BAAAsAsYkwAAAAAAAAAAoqk2JmUExHkHlj4mlgtyNak+R7Gmp3/iu/IXzTDPefhozVFTqj94jgEAzTHvbc0PvBuxRdz3Ux5ZP967o4/NhjabZxrqj+rjlhVjOgAAHDPVxuTwWQwQPEh80Xwgfh/M6Uv+vqHn0qgxpjf9HR9f4g8Wo8Ok96xeF+L2c/GMGS3fMfIYo330SfOvbZ1sNtf0ikkfAKABbEj2lzdmLNhs3micTamPviU5ymgf0ef8y+rHUxhtxwgbkiNajN9MWb/mRNO+zzENAADgGGg1zbV390FvY6Js+tiyF3VF0pa8vqOrmwFly/fChEZGTXdOcjzrWcz6j+1RGsjkOcpjWvTQ+7yo2rAz54jBUn9TJJ1Hdv10S9NMyOTtg+56+kPJkJ4/7qjwUen5PPdtVF7nHHOtbXlZvua6pbpy5VKuD/m38u+cc+0TdZTW59xQ9/aVJYSYeivKxutoCdE/HyYK7UYtAuo3mjTlCKo3g1uOQ7Qj1gtXnvr6QZWyAzdjwL5WdPuoJlTOu85z65f79k2hHxnSPXsbsyU18+U5deyTcd324RIt59B2FKqnAYhnvBUd+fhtQx/Fjrw+VfLT3wf1k+61auimzWoiZMUOa8tT3bt7kY7sxUOzawMAAGiHA62Z/KSfNkeB1asYrMd0Lcaf3tUNDZwJTe+CJznfgQORmFjcEr0YD3AeYfVNHDLpMe1/z/S5HL0Vn91ag54cbPu0vLG9ym/iaV14QlP0yG42M/q2rxXMmt6XwpIUg/J9pfua79un6WWIJzigvBHXW94+0MWXinhzBFteV5w8yKb0mJ8r5Vf0yucR79LzcWREnEti4iXPZU/GYrQ9b3gv7+U6G/iZH6XlPXMM7xBi6m1BIyGb79n2+bJp3ylHjP5ZsHEyYo8KP4cdtYip31ASl6Oq3phO2lE7yAm5qCs2EMwzXr+W6iOofcQQImfGPU8pTKC+ZPRdW9COXnFZxfMVjZqa7WMPYXIObEfBehrG+n1JWVA/HkqA/HpXdOPtJ/Nx5Yau8n7SpLdupOO4GcopPLi5Kjo7V4/SMRo+hgMAADgkLRuTa/r5FP/Zg08LqBTXazWB7v2lSzGhsVNde38vxb9bg1ZGKvMZwPpHfEN0+Td/wHLkrnc3E5OBHemzPGk1XtSejIzag97qcSonAy9VVop+jjFbxAZfFDGA9TvxmC8KVfm366cHaYi/+TzBr57ZY0V5w6+XUXbJxluPZPXQgOalGdOanm6F/MQ9ba98HvH2eap5gm5uPbyWk7hP48nIn9eJnkhnhCv7QCLrbf/zMZH6x2hDcsAGtyV3Jrp+A0ldjqrrddKO2kAYGxxp4roqVNXwufh7UPuIp7reFIXzhMEwEydWRYbW39zpDOiigaB99y0aNTXax17C5BzajoL1NAhtvIl+fO3sSeDNBAgiRH49ulOCL/aTelwZz1pqS6WxmOXOjheiN2mptuyUBgAAUItWjUmTatnW4CPJU1zNDImu3QlI70JMEXLU+WIGIH7KqT8Bcg0Qmf5lIkM7PK0+pBEsHssXcavJoLJQerKSG+IGPbH6/ClNHveXN+56hWv5HA568uIrx1BVspNSp6LTLpkVKvFNPKUzoq73P6reqp8vmvetIVlOg4uv3zBSl6Pqet22o5TISJMo7yzA2KhsH9GE1lv5vMrsjtWEODBeL7qfU+O+CaiWc2g7itDTGBYjer3eRhLzSHF9gzIA6Wgo9pO57vp0qA3Y6avW5ebjS5OoNwAAgLZIbExymtLWe9qfXsoNeYoe98TIqFLRGFSGhpWipKOVciDi8+VGPQuSDuX1t/jmkixnqPKGWuVotOYlmCE9602OeCKs7ls/dYupntyvSQYTxGSlWN4/amIYPYlLfT2F7alujutsaDoBTF9v4fqX0XSqvvHLqJ36COVc2lFKVPTuzMhTrIWhYUfu2uLwetVVO9L3Hb8Vx9A8YltzL4Iw+bn95C6Dug04pfgPPVx8Oetym0W9AQAAtENiY1JMJnLvqTza33FORpV4Ut23Bkc5woux36Qf9Ygd3JzOtf75pMHFlUx35O/5d/GBGbB4oO3rDQ+25ai/5iWOHt192PdU5YqOsEjjWVAZeVJy4cnKtqz2EVt/qa+n8KXhyXqrSSGqqdfbhkSKdpOo3gRx+jeQO/WqpW+++7VTHyGcRTtqARlpO0GkEWz1kwZeI5gbkgfo77vRq67akb6vh7p6FCO/4T2vG9X9pMwSSZNqvRM9bi1Gar2unWmh+vui0xcAAMBxcKANeNpCR5UKW6arQy6xMKmsKh0p+36n9yXRzVVPbdSTG1tmbaH2vibb8EBNBtwIoVp/UwVHWNQg7zOm9qO8yuU0UJem6Y4uia+XbwThibCqyW3N1D+5EY8wMB5XyhmR1NvepN7q6d/wOY/EuRG41PUbyrm0ox3otV11UOu3dVbEyaDXvrtrsNmQ7E+Fqd6WIelGw1LrVSih7aiJnvrQ9y0syVDsNe6lU9X3HspI+cn+V6W6qo2A2t37wIxbpedz9QAAAMAxcdrGpE5xZePQRUafrEmb9OQupjQlPSCyFzSb0mgqBimDHrxtI0wOznXTqPSGL4sHM8mXnuHlJY3FxwVWk9IaGDUJ8ZeviuEzT6A5IuMaGCuaWNu3K+/zlPqJwjZpr6c3glgUd3RkGY4WA5q/1F2Lm9fLSKapuetAo0hab3X1jyNxbFCW6zt1/YZxPu1IOp3EXxvjzxhQNdE7CpcMf/HcxxA59bGa9GmaOSmsRg7tRSTVmns7GpZar8IJa0cRehqIvK8o3YOtLEJXZL/l2YtArWtkfA6LWPmp8mTLR3oUxlzytaAefHIu6wEAAIBjotqYFAOXSh/lCYX4nTt6nU7aaPIjJvImLTU/Ii+oNk7Z4S3VOxWWdqw03nXtBRXYG7yoKI9Ki5PP1F/Sjd42vg5q59Ht9eS28x/3dKG/Nwyf6YVuC/IQczWaf7nviQyFIzIcobXKIo9XurbXocit3YXh6amPWhs8pL6ekEv+6on8Omotbl25KNRGPEzDDSUS11t9/WODMncgWG0zdX0EcjbtSMjvRTy0WX/Z/6aZXpNZD5WCW2qXr9ftri2Porj2ffQ5tzZBUchdS+VPxXPlUeNdg7nRXlhzLzdfKdZbar0KJrAdBetpKHxfveGOuefoU6a3+/RFyZHx92ux8lOv2lrQIvMvBWBjOX8utX50Oz+oPX7oV8Lk103R3wMAAGiP/zabzf/0zwD8IniTB/X+ymQvAwfgxJGRNDl5b3/9IwAAAABOnxNfMwlAPVTqY9ONdwAAAAAAAPi9wJgEv4/VhHhHw8H8HtEXAAAAAAAAanKExqR6x1S+XmLnUWNdzmkDuTTFrO8ZLeTW+P701t8mZ5TXewSXtyv5HXu9QS5+jv35AAAAgDiwZhIAAAAAAAAAQDRIcwUAAAAAAAAAEA2MSQAAAAAAAAAA0cCYBAAAAAAAAAAQDYxJAAAAAAAAAADRwJjsBLWj378n7Nf3W1A7yU5EzSdiNRHX+0eHVqHk5WgE2tG5cFx6lZpfoKfrJ/ond6I91zoEAACwCxiTAAAAAAAAAACiqTYmZQTEeQeWPiaWC3I1qT5Hsaanf+K78hfNMM95+GjNUVOqP3iOAQDNMe9tzQ+8GzExFe+kPCZ59+7oY7OhzeaZhvqj+rjlxpgOAADHTLUxOXwWAwQPEl80H4jfB3P6kr9v6Lk0aozpTX/Hx5f4g8XoMOk9q9eFuP1cPGNGy3eMPMZoH33S/GtbJ5vNNb1i0gcAaAAbkv3ljRkLNps3GmdT6qNvSciQno187UPIWnw7uLminjrxjGBDckSL8Zsp79ecaNr3OaYBAAAcA62mufbuPuhNjHrZ9LHlaNiKpC15fUdXNwPKlu+FCY2Mmu6c5HjWs5j1H9ujNJDJc5THtOih93lRtWFnzhGDpf6mSDqP7PrplqaZkMnbB90VZhxigvJx50xC3Ofz3LdReZ1zzLW25WX5muuW6sqVS7k+5N/Kv3POtU/UUVqfc0Pd21eWEGLqrSgbr6MlRP98mCi0G30OqN9o0pQjqN4MbjkO0Y5YL1x56usHVcoO3IwB+1rR7aOaUDnvOs+tX+7bN4V+ZEj37G3MltTMl+fUsU/GdduHS7ScQ9tRqJ7WY/30IK43oJurmqZklfz090H9pHutGrpps5oIWbHD2vJU9+5epCN78dDs2gAAANrhQGsmP+mnzVFg9SoG1zFdi/Gnd3VDA2dC07vgSc534EAkJha3RC+WJ1hFWH0Th0x6TPvfM30uR2/FZ7fWoCcH2z4tb77M9XLPchGe0BQ9spvNjL7tawWzpvelsCTFoHxfmXPE9+3T9DLEExxQ3ojrLW8f6OJLRbw5gi2vK04eZFN6zM+V8hvR53wrvzziXXo+joyIc+lNnbdhT8ZitD1veC/v5Tob+JkfpeU9cwzvEGLqbUEjIZvv2fb5smnfKUeM/lmwcTJijwo/h51qFlO/oSQuR1W9MZ20o3aQE3JRV+O8vHxcv5bqI6h9xBAiZ8Y9TylMoL5k9F1b0I5ecVnF8xWNmprtYw9hcg5sR8F6WpcmfRUTIL/eFd14+8l8XLkhY8ea9NaNdBw3QzmFSxHX1aN0jIaP4QAAAA5Jy8bkmn4+xX/24NMCKsX1Wk2ge3/pUkxo7FTX3t9L8e/WoJWRynwGsP4R3xBd/s0fsBy5693NxGRgR/osT1qNF7UnI6P2oLd6nFImjLqXqpFfP8eYLWKDL4oYwPqdeMwXhar8W+XlHtObzxP86pk9VpQ3/HoZZZc8IeqRrB4a0Lxk+a7p6VbIT9zzw5JfHvH2eap5gm5uPbyWk7hP48nIn9eJnkhnhCv7QCLrbf/zMZH6x2hDcsAGtyV3Jrp+A0ldjqrrddKO2kAYG7diZsx1Vaiq4XPx96D2EU91vSkK5wmDYSZOrIoMrb+50xnQRQNB++5bNGpqtI+9hMk5tB0F62lN8qhkfV0IkV+P7pTgi/2kHlfGs5baUmks5vKy44XoTVqqLTulAQAA1KJVY9KkWrY1+EjyFNd8cB3StTsB6V2I4TdHnS9mAOKnnPoTINcAkelfJjK0w9PqQxrB4rF8EbeaDCoLpT3NuSFu0BOrz5+ysba3vHHXK1zL53DQkxdfOYaqkp2UOhWddsmsUIlv4imdEUFRXA9R9Vb9fNG8bw1J2+BWxNdvGKnLUXW9bttRStbvS6F9Y5oFGBuV7SOa0Horn1eZ3bGaEAfG60fMmBr3TUC1nEPbUYSe1qJpVDIC6Wgo9pO57vp0qA3Y6avW5ebjS5OoNwAAgLZIbExymtJ2/UR/eik35Cl63BMjo0pFY1AZGlaKko5WyoGIz5cb9SxIOpTX3+KbS7KcocobapUj9ZoXP0N61psc8URY3bd+6hZTPblfkwwmLEZWWdUhJ4bRk7jU11PYnurmuM6GphPA9PUWrn8ZTafqG7+M2qmPUM6lHaVERe/OjDzFWhgaduSuLQ6vV922o5zmUUlFmPzcfnKXQd0GnFL8hx4uvpx1uc2i3gAAANohsTEpJhN6/YQ6UmwTvh8ZVeJJdd8aHOUIL8Z+k37UI3ZwczrX+ueTBhdXMt2Rv+ffxQdmwOKBtj/NZLrVthwp17zso0d3H/Y9VbmiIyzSeBZURp6UXERhrbLaR2z9pb6ewpeGJ+utJoWopl5vGxIp2k2iehPE6Z+YWH6ptUr+SFw79RHCWbSjFpCRthNEGsFWP2ngNYK5IXmA/r4bvequHW1JE5WMkd/wnteN6n5SZomkSbXeiR63FiO1XtfOtFD9fdHpCwAA4Dg40AY8baGjStbmLPkhl1iYVFaVjpR9v9P7kuQueHKjntzYMmsLtfe1bspjCTUJcSOEysNcBUdY1CDvM6b2o7zK5TRQl6bpji6Jr5dvBOGJsKrJbc3UP7kRjzAwHlfKGZHU296k3urp3/A5j8S5EbjU9RvKubSjHei1XXVQ67d1VsTJoNe+u2uw2ZDsT4Wp3pYh6UbDUutVKKHtqIme7ic4Kik3AGKnqu99wpHyk/2vSnWVKa4t731gxq3S87l6AAAA4Jg4bWNSp7j6tkiX0Sdr0iYjAospTUkPiOwFzaY0Ym+vQU8abCNMDs5106j0hi+LBzPJl57h5SWNxccFVpPSVuz5BKLOFvDDZ55Ac0TGNTBWNLG2b1fe5yn1E4Vt0l5PbwSxKO7oyDIcLcTE6qXuWty8XkYyTc1dBxpF0nqrq38ciWODslzfqes3jPNpR9LpJP7aGH/GgKqJ3lG4ZPiL5z6GyKmP1aRP08xJYTVyaC8iqdbc2wZUar0KJ6wdRehpFOFRSbWukfE5LGLlp8qTLR/pURhz7a0F3eKTc1kPAAAAHBPVxiSvh5GeTp5QiN+5o9fppI0mP2Iib9JS8yPygmrjlB3eUr1TYWnHSuNd115Qgb3Bi4ryqLQ4+Uz9Jd3obeProHYe3V5Pbjv/cU8X+nvD8Jle6LYgDzFXo/mX+57IUDgiwxFaqyzyeKVrex2K3NpdGJ6e+nAn5UGkvp6QS/7qifw6ai1uXbko1EY8TMMNJRLXW339Y4MydyBYbTN1fQRyNu1IyO9FPLRZf9n/pplek1kPlYJbapev1+2uLY+iuPZ99Dm3NkFRyF1L5U/Fc+VR412DudFeWHMvN18p1ltqvQomsB0F62kEeWQzxOml5Mj4+7VY+alXbS1okfmXArCxnMtBrR/dzg9qjx/6lTD5dVP09wAAANrjv81m8z/9MwC/CN7kQb2/srwLKgC/ExlJk5P3Q6wDBAAAAMCpc+JrJgGoh/L2N914BwAAAAAAgN8LjEnw+1hNiHc0HMzvEX0BAAAAAACgJkdoTKp3TOXrJXYeNdblnDaQS1PM+p7RQm6N709v/W1yRnm9R3B5u5Lfsdcb5OLn2J8PAAAAiANrJgEAAAAAAAAARIM0VwAAAAAAAAAA0cCYBAAAAAAAAAAQDYxJAAAAAAAAAADRwJgEAAAAAAAAABANjMm9lHfem6z0V2fJCZd3/UT/7GfHboigC4weTkRrOmFSl+Nc5AJaRe24nVBHVhNxvX/0dODBIHk5GqHG9X+HFgJIznHpVWp+gZ6e8TjYkTF5CkrDzziixfiNNpuNOZ7P9sWEKcvbQf327uhDP/PbWH/WmF/QuR0FkDMAAAAAwClSbUxKzx5b0uXjrKN0q1da0IDm97/ktfa/rbwAtIFxajzTSbek1OU4F7kAAEAE5v3W+YGsqZZQTumtrA+fkVBJ6nHQysjr2h6rNiaHzzLas9l80Xwgfh/M6Uv+fs5ROlFHP5/i30v663uv/Rny28oLAAAAANAWbEj2lzdmzrzZvNE4m1IfBmViypl1X3Oiaf9cg15revonjMhbopk0zLonWZqr9L7IBuJ4B6ya3HpoRKWL37Npf3ueOMppblpg5hyPp0Fa5urzogfoEF4J1xPiUdzA51PfuXnU+vr5Rc21tvflr8x1W+ygQp5vW77Q+nXlt6POLO9LfpTknJDm5Sg/X1D9MjH6UtHeDFXyi9ar6nYZ8nzb8oXKOR27nq90z8D6UOdtr7OrLRavYR9lGYqzq/u/GDx6ULpuSDn0Ob76UeWLvJ5gV32E6rM6GsjHzcDx3TekPuSzqc/36ouk4nrmWqHt0pGdPt8mSM5aFkH1G4X7fPuuU5SNty/w6IG32lxMXbv9ceL2JklTjqj2USqH6l/LxNTHfpReBIxvsexrl9Hto5pQOe86z63f3t0HbT7uaOujH9I9T/6zJb030i2njn0yrts+XKLlHNqOQvW0mtVE/C0HuqwIV+/uRQbAFg/xeiCpkp/+PuU4GMpq0qflzZejW92Sds0ke1yEQtCb9sLw4rXFyFSAbFi5d0b8PpgLYWgvAh8fd7ZYWHH7NL0M8TRk8vP+90yfy1FU8dltZIVZHVd/mokPFjTapQBSOUb0aZXhS2juYtTi82mWtw908aUixXw/eV0hnIGQ/2Pp3nuIKW8A8fUrOoDCGs0ZfZdkIs67JXqxrqPkXH/gqyKqHFF6EEqgvlS0N0W4/ML0KqJdJu0PWsB9PlWQeu03cM3utsz5oeQ9mL9Qsbgx/V8ArKf9KZGRsbqvuLP46GN775By9K7oRvxttnx32uqa3peiHxnc0FXM9XJC9Dm0HBHIgX+0oHF+Xz6uXx05x9RHSPsNv15Qu4zph6rkPLyX9yrX74oeeZwYz2rImcsb0t8zPA716Xu2fT52NJXqo864wGOeqGtR2eJv7FSzxO1Nkrgcoe1D3FNONM01Vf9aJKY+uiGsXSacD+WEyJlxz1MKE6gvGX3XFrSjV1xW8XxFo6Zm+9hD0vlBsJ6GsKJX0aQHN1dFw2r1SHJam33X0OkA+bU1DgYwfD7A/CiS5BvwcMM3zoHhtVSOz5/4qlw/PYgmM6Y3n6fh1dNauVM05/boStZypBKZlF6lOOKiop/YKtPWC7Cmp9spZeKedoXyRFH2Oz5PSIrnk2SUXfJg3qO/l/x7g3WOweVtgfUPcWLt+Np+9iE9l+5Z/qx3NxNPmtGymWsvATX0IJRAfalub6HyC9Or2HaZqj9oi8LziQ5/1nr7LbJ+uqUpzenFGRii+78K1u9LUcNjmpn79OjuRUwExKfxkxrxtywo17u+ficeQ8ez+v1Glb6kLYdATGpuxYyDHRmWqMW9nwu/px6Pwq8X0i7j+6H9cs6f16lfua5e/G2hzw4kuL9XpOvXLLQhKZ1WltyZ1O0tJ3U5qq63ehR6MCj3JyUi6+PgBLbLsPYRT3W9KQrn7Rs/LNbfbOEM6KKBoH33LRo1NdrHXtLOD4L1NASty5fWGi3liBB2vrTcPslTdRWEyK+9cfAUSWxMjsk3zmTRo7y27MfXokpttCJ//pQHR+fGKgLQ0mYPWlkGnt5geO1RLkHK5ytcy/Z+nBK9v8RV6fWcnwo19CCUMH1J1d4U1XoV2y7TPl96ys/XuyhO+nNa6V/0hKk86MT3fwdHTrCKE5Pc0PPVeRiH15eyceoj9XgUd73KdhndD1XL2TfxXEn3/5xqzdWj+vsW9OB9a0iWPfpttbfU5ai63o4IjY8jH3/D2qWietyKJbTeyuftGj8MqwlxYLxedD+nxn0TkG5+EKGnNVhN/uh1qnl/2yQKXEEr4+BpkjwymYY1SefNYrRNudSHbIg1Gw0rmXs97xqGQGxPCIhlSM86RY0HNFUf/hQMk5tvjvq59W1w7HqQTn7ttMvfyTaaVPS0M+nl3Lu6oYGo9QfTwPT9aw96Q1J2Su4N3zWRSEvqcqgoQRWp66OddpS2H3Lrt+kEMLy/DyW8X8toOlXf+GXUbb/WzfiWvj5SEtYuT4w8xVr0VXbkri0Or1ddzw84xfYPPVx8OVl19aLAYfLrZhw8Ro7UmOwRO1qIU4XstEtz1IsIcJ6xe60mece+tAe1KyoIo0d3H3ldcL68Wmtke0q5QfN6Tk7r2NZb3dz6djhmPUgrv3ba5TEhJzGDi5oT5nBkemu2a1LRgpzX36J1iUHPbHLUl+m1W+9tPMN7Xi+jo14yOpYmxWwvicshPfqVpK6PdtpR6n6oENWUKa5hkaLdVPf3ocT1a0Ivv9RaJX8krrt+rdvxLV19pCasXR4fO8cPXiOYG5It6lNON3rVUTvq5VF2tX7VntPXfUtBjPw6GQePkI6MSaV0u9M9jiidy0e+8Nbz/KozSZR6qnPBj5adz1dVvz7YU6oa63ZSpL08dVOrGlNRjqZ60Hr9ppZfW+2yjr60wZrU2PNXPFGL5Omtb7sG19RyXtPTg5jIuIN80/VRUv9Vio9M7UnV7+0kfTl6UtAL2r8sLnV9JL5eW+OR3IhHGBiPK5XimtTb7uvvQ6nXrw2f80icG4Hrar6Rvn/29aNqHVsVTepjBw3Gt7B2eWzsGD/YkOyr7Il2DEk3GtbVvCm0HTXRUx8qOlgurysXC64T6Yx0dyBmIuV38HHwOOnMmFR9xcPOtApl7U+pf4wJ/eL55cLbRXEHLfZmjBYDmr/ET27y9C3TeZoO6DiIe77q+uWUDzfFWHUmA7oxLVFfx17zIzuBQ6QBMVXlCNeDbuo3vfzaaZcB+nIAeLvt3dHCVOxLb92SVs65fF89A2cT1EYt2fKRHsXg29YamC0tlEPvXFoyMET/ZIs+td6nrt/U45FCb8QjrstBFXcdaBRB/X0odfs1jsSxQckRuGJ9dzPfSN0/5/W17UdlhGV5SWPxcYGk9SHunHp8C2yXx4R3/DByaC8iqbJc7GhYar0KJ6wdRehpIL77luWyRa1rZHwOi1j5HXocPE6qjUnReE06EUufK0z+3iwdQnkJVVqFur6zflFupftGYzGQ5d97z+sK3gn1bWylW/2h/vRSdBj1tqfn8r6I3tOsX+h/08xse38ERD5fZf0K+b3QrfmOD9Hnlrb3L12nv6QbvT21DXdG+XVUfv5WT5voS0g5gvSgo/oNlV8wLbXLSjm3QvFVOKPP+umSofqnBjjxQ5X8Est5+MxRB+fVP/qw+/HYdiQnkdmCFmIS5UuBTN0uQ8sRjkr1exsXde/P63XR2E+t96mvl3o80qiNeJiGG0oE9veh1O/XuL5Zh9TfGp1pqV+rInX/zBs92bosX9/wcU8X+ntD4vpg+aUd3wLbZadUjx9y11L5k6fPqvGuwdxot6+lNpupN29KTmA7CtbTUPi++hUp+f329X9Kjoy/X4uV36HHwa1dxuXUGpa3vYbvsKzLf5vN5n/6ZwAA+BVw564Gm3a8xceFfqfcQEx2nJRQ3pRMRq/qTiIPyrmU45RQMuf3VzbZXwCAc+J3jR8AVHOkG/AAAABIgl675Eu/URtdtLh1ekrOpRwnhEp9bLrxDgAAgHMGxiQAAJwzPbXbXfGl1syKHjlF5uAbNdTkXMpxKqwmMoVqML9H9AUAAMBOYEyeHepdO3k+9c6jo7zq7oBcTpPQevt/9H++z93jbOo3Rp/1O+Vou05DHSNa8M6oTXd1PRgh5UA7b4pZ3zNayK3x/emtv03OKK/3CC5vV/I79nqDXPwc+/MBF6yZBAAAAAAAAAAQDSKTAAAAAAAAAACigTEJAAAAAAAAACAaGJMAAAAAAAAAAKKBMQkAAAAAAAAAIBoYk3sp7yg1WemvzpITLu/6if7Zz45dvkAXGD2ciNZ0wqQux7nIBbSK2kk2oY6sJuJ6/+jpwINB8nI0Qo3r/w4tBJCes57n/AI9PeNxsCNj8hSUhp9Rbzm/2Zjj+WxfuJWyvB3Ub++OPvQzv431Z435BZ3bUQA5AwAAAHtpZZ4DQHOqjUnp2bM8IdZx1lG61SstaEDz3/IW7N9WXgDawAz2z6f9ovfU5TgXuQAAQATmva35gayp9rAit0dpn6QeB4+ovNXG5PBZekE2/LLogfh9MKcv+fs5R+lEHf18in8v6e9pvM27Mb+tvAAAAAAAbcGGZH95Y+bMm80bjbMp9WFQJmZNT/+EUXVLNJOGyrlzfOVNluYqvS+ygaiUNeOFsczlrYdmRAvxezbtb88TRznNTQvMnONZ+yAtc/V50QN0iHUSTlnFUfIOBD6f+s7No9bXzy9qrrW9L39lrttiBxXyfNvyhdavK78ddWZ5X/KjJOeENC9H+fmC6peJ0ZeK9maokl+0XlW3y5Dn25YvVM7p2PV8pXsG1oc6b3udXW2xeA37KMtQnF3d/8Xg0YPSdUPKoc/x1Y8qX+T1BLvqI1Sf1dFAPm4Gju++IfUhn019vldfJBXXM9cKbZeO7PT5NkFy1rIIqt8o3Ofbd52ibLx9gUcPvNXmYura7Y8TtzdJmnJEtY9SOVT/WiamPvaj9CJgfItlX7uMbh/VhMp513lu/fbuPmjzcUdbH/2Q7nnyny3pvbFuVZFIn6PlHHrfUD2tZjXp0/Lmy5F1Q6rapf4+5TgYSivlbUjaNZPscREKQW/aC8NJ3YuRqQDZsHLvjPh9MBfCMB6bDX3c2WJhxe3T9HK7hu9rTjTt+waMTH7e/57pczmKKj67jawwq+PqTzPxwYJGuxRAKseIPq0yfIlOYjFq8fk0y9sHuvhSkWK+n7yuEM5AyP+xdO89xJQ3gPj6FZ1HYY3mjL5LMhHn3RK9WNdRcq7ZMQYQVY4oPQglUF8q2psiXH5hehXRLpP2By3gPp8qSL32G7iWZVvm/FDyHsxfqFjcmP4vANbT/pTIyFjdV9xZfPSxvXdIOXpXdCPnQ+9OW13T+1L0I4Mbuoq5Xk6IPoeWIwI58I8WNM7vy8f1qyPnmPoIab/h1wtqlzH9UJWch/fyXuX6XdEjjxPjWQ05c3lD+nuGx6E+fc+2z8eOplJ91BkXeMwTdS0qW/yNnWqWuL1JEpcjtH2Ie8qJprmm6l+LxNRHN4S1y4TzoZwQOTPueUphAvUlo+9WBZ1en5POD4L1NIzhc+r5QkC7bGscDCB9eZuTfAMebvgm/XV4LZXj8ye+1ayfHkRXPKY3K5e2d/eiFPnV0xq4UzTn9uhK1vJ3XMdoUnqV4oiLin5iq0xbL8Canm6nlIl72hXKE0XZ7zx4OuQUzyfJKLvkwbxHfy/59wbrHIPL2wLrH+LE2vG1/exDei7ds/xZ724mnjSjZfuuvQpq6EEogfpS3d5C5RemV7HtMlV/0BaF5xMd/qz19ltk/XRLU5rTizMwRPd/Fazfl6KGxzQz9+nR3YuYCIhP4yc14m9ZUK53ff1OPIaOZ/X7jSp9SVsOgZjU3AoDiR0ZlqjFvZ8Lv6cej8KvF9Iu4/uh/XLOn9epX7muXvxtoc8OJLi/V6Tr1yy0ISmdVpbcmdTtLSd1Oaqut3oUejAo9yclIuvj4AS2y7D2EU91vSkK5+0bPyzW3+y4H9BFi4JOr89p5wfBetoZIe2yvXHwFElsTI7JN85k0aO8tuzH16JKbbQif/6UB0fnxioC0NJmD1pZBp7eYHjtUS5ByucrXMv2fpwSvb/EVen1nJ8KNfQglDB9SdXeFNV6Fdsu0z5fesrP17vgSbTHaA+qj0j0hKk86MT3fwdHTrCKE97c0PPVeRiH15eyceoj9XgUd73KdhndD1XL2WfQrF6FKSkmgLXm6lH9fQt68L41JMse/bbaW+pyVF1vRbKKbq6c/sTDkY+/Ye1SUT1uxRJab+Xzdo0fhtWEODBeL7ofSjv6nG5+EKGnx04r4+BpkjwymYY1SefNYrRNudSHbIg1IwKrSfFafHjXMARyid1qGjCkZ52ixgOaqg9/ipLJzTdH/dz6Njh2PUgnv3ba5e9kG00qetqZ9HLuXd3QQNT6g2lg+v61B70hKTslT/HZNZFIS+pyqChBFanro512lLYfcuu36QQwvL8PJbxfy2g6Vd/4ZdRtv9bN+Ja+PlIS1i5PjDzFWvRVduQuPV3pc7ftKDVh7bKbcfAYOVJjskfs4CFOFbLTLs1RLyLAecbutZrkHfvSHtSuqCCMHt195HXB+fJqrZHtKeUGzes5OZ1kW2/1c+vb4Jj1IK382mmXx4ScxAwuWveYyvTWbNekogU5r79F6xKDntnkqC/Ta78a1NnwntfL6KiXjI6lSTHbS+JyyEhCJanro512lLofKkQ1ZYprWKRoN9X9fShx/ZrQyy+1VskfieuuX+t2fEtXH6kJa5fHx87xg9cI5oZki/qk6Eqfu2tHqYlpl52Mg0dIR8akUrrd6R5N00taJl9463l+1ZkkSj3V6xqOlp3PV1W/PthTqhrrdlKkvTx1U6saU1GOpnrQev2mll9b7bKOvrTBmtQbcv6KJ2qRPL31bdfgmlrOa3p6EBMZd5Bvuj5K6r9K8ZGpPan6vZ2kL0dPCnpB+5cRpa6PxNdrazySG/EIA+NxpVJck3rbff19KPX6teFzHolzI3BdzTfS98++flStY6uiSX3soMH4FtYuj40d4wcbkn2VPdG+Icl0pc+h922ip4ngOpHOSHcHYiayXR58HDxOOjMmVV/xsDOtQln7U+ofY0K/eH658HYxKqTJsjdjtBjQ/CV+cpOnb5nO03RAx0Hc81XXL6d8uCnGqjMZ0I1pifo69pof2QkcKs21qhzhetBN/aaXXzvtMkBfDgBvt707WpiKfemtW9LKOZfvq2fgbILaqCVbPtKjGHzbXwPTQjn0zqUlA0P0T7boU+t96vpNPR4p9EY84rocVHHXgUYR1N+HUrdf40gcG5QcgSvWdzfzjdT9c15f235URliWlzQWHxdIWh/izqnHt8B2eUx4xw8jh0MZkopu9Dn0vhF62hJqXSPjc1jEtstDj4PHSbUxKRqvSSdi6bOiyN+bpUMoL6FKq1DXd9Yvyq1032jsyb92O8FO4J1Q38ZWutUf6k8vRYdRb3t6Lu+L6D3N+oX+N83MtvdHQOTzVdavkN8L3Zrv+BB9bml7/9J1+ku60dtT23BnlF9H5edv9bSJvoSUI0gPOqrfUPkF01K7rJRzKxRfhTP6rJ8uGap/Kr1V/FAlv8RyHj5z1MF59Y8+7H48th3JSWS2oIWYRPlSIFO3y9ByhKNS/d7GRd3783pdNPZT633q66UejzRqIx6m4YYSgf19KPX7Na5v1iH1t0ZnWurXqkjdP/NGT7Yuy9c3fNzThf7ekLg+WH5px7fAdtkp1eOH3LVU/uTps2q8azC4P+1In0PvG6ynoRg7hfVYSzzXRY+clfOD8fdrse3y0ONgbHkPwX+bzeZ/+mcAAPgVcOeuJtuH8xZ3h36n3EBMdpyUUN6UTEav6k4iD8q5lOOUUDLn91c22V8AgHPid40fAFRzpBvwAAAASIJeu+RLv1EbXbT9Au1EnEs5TgiV+th04x0AAADnDIxJAAA4Z3rqnXLb7ctzVvTIKTLJNgBpmXMpx6mwmsgUqsH8HtEXAAAAO4ExeXZwWpLOnd53dJRX3R2Qy2kSWm//j/7P97l7nE39xuizfqccbddpqGNEC94ZtemurgcjpBxo500x63tGC7k1vj+99bfJGeX1HsHl7Up+x15vkIufY38+4II1kwAAAAAAAAAAokFkEgAAAAAAAABANDAmAQAAAAAAAABEA2MSAAAAAAAAAEA0MCYBAAAAAAAAAEQDY3Iv5R2lJiv91VlywuVdP9E/+9mxyxfoAqOHE9GaTpjU5TgXuYBWUTvJJtSR1URc7x89HXgwSF6ORqhx/d+hhQDSc9bznF+gp2c8DnZkTJ6C0vAz6i3nNxtzPJ/tC7dSlreD+u3d0Yd+5rex/qwxv6BzOwogZwAAAGAvrcxzAGhOtTEpPXuWJ8Q6zjpKt3qlBQ1o/lvegv3bygtAG5jB/vm0X/SeuhznIhcAAIjAvLc1P5A11QonIeek46Bywm/LfPgMDJtqY3L4LL0gG35Z9ED8PpjTl/z9nKN0QjF/PsW/l/T3NN7m3ZjfVl4AAAAAgLZgA6e/vDFz5s3mjcbZlPowKJPy++RcziT8mhNN+90F+ZKluUqvgKw4x1q2Srb1HAghiN+zaX97njjKaW5revq3/d5recscZPV50TNxCCvd9Qx4KjLw+dR3bh61vn5+UXOt7X35K3PdFhtOyPNtyxdav678dtSZu05AHCU5J6R5OcrPF1S/TIy+VLQ3Q5X8ovWqul2GPN+2fKFyTseu5yvdM7A+1Hnb6+xqi8Vr2EdZhuLs6v4vBo8elK4bUg59jq9+VPkiryfYVR+h+qyOBvJxM3B89w2pD/ls6vO9+iKpuJ65Vmi7dGSnz7cJkrOWRVD9RuE+377rFGXj7Qs8euCtNhdT125/nLi9SdKUI6p9lMqh+tcyMfWxH6UXAeNbLPvaZXT7qCZUzrvOc+u3d/dBm4872vroh3TPUZlsSe+NdauKRPocLefQ+4bqaTWtyLmqXervU46DoawmQlYc2LMier27FxnwWzw0u3Zd0q6ZZE+AUAh6094BTupejEwFyArPvQbi98H8y1jVfHzc2WExVtw+TS9DLO9Mft7/nulzOYoqPruNFKrVcfWnmfhgQaNdCiCVY0SfVhm+RE0uRi0+n2Z5+0AXXypSzPeT1xXCGQj5P5buvYeY8gYQX7+iQRTWaM7ouyQTcd4t0Yt1HSXnmh1jAFHliNKDUAL1paK9KcLlF6ZXEe0yaX/QAu7zqYLUa7+Ba1m2Zc4PJe/B/IWKxY3p/wJgPe1PiYyM1X3FncVHH9t7h5Sjd0U34m+z5bvTVtf0vhT9yOCGrmKulxOiz6HliEAO/KMFjfP78nH96sg5pj5C2m/49YLaZUw/VCXn4b28V7l+V/TI48R4VkPOXN6Q/p7hcahP37Pt87GjqVQfdcYFHvNEXYvKFn9jp5olbm+SxOUIbR/inssbuy9V/WuRmProhrB2mXA+lBMiZ8Y9TylMoL5k9N2qoNPrc9L5QbCeNqWunAPaZVvjYCUrehVd2ODmyjKeBatHktP47LuTNpx8Ax5u+MZYHl5L5fj8iS/a+ulBdMVjevNZ3q+e1sCdojm3R1eyliOFalJ6leKIi4p+YqtMW8/Hmp5up5SJe9oTXp4oyn7H5xlI8XySjLJLHsx79PeSf2+wzjG4vC2w/iFOrB1f288+pOfSPcuf9e5m4kkzWrbv2qughh6EEqgv1e0tVH5hehXbLlP1B21ReD7R4c9ab79F1k+3NKU5vTiz8+j+r4L1+1LU8Jhm5j49unsREwHxafxgK/6WBeV6fdfvxGPoeFa/36jSl7TlEIhJza0YgdmRYYla3Pu58Hvq8Sj8eiHtMr4f2i/n/Hmd+pXr6sXfFvrsQIL7e0W6fs1CG5LSaWXJnUnd3nJSl6PqeqtHoQeDcn9SIrI+Dk5guwxrH/FU15uicN6+8cNi/c0z/gFdtCjo9Pqcdn4QrKcNaCbnkHbZ3ji4F912L601acrxQvQmLdVP8qhq6yQ2JsfkG2ey6FFeW/bja1GlNlqRP3/Kg6NzYxUBaGmzB60sA4+WDq89yiVI+XyFa9nej1Oi95e4Kr2e81Ohhh6EEqYvqdqbolqvYttl2udLT/n5ehc8ifYY7UH1EYmeMJUHnfj+7+DICVZxwpsber46D+Pw+lI2Tn2kHo/irlfZLqP7oWo5+wyalXSHz6nWXD2qv29BD963hmQ546Gt9pa6HFXX2xGx8HHk429Yu1RUj1uxhNZb+bxd44dhNSEOjNeL7ofSjj6nmx9E6GldDiJnQSvjYByryR+9XjQfX9qOevtJHplMw5qkU2Ex2qZc6kMqSM2IAAvdvZ53DUMgtmcAxDKkZ52ixgOaqg9/ipLJzTdH/dz6Njh2PUgnv3ba5e9kG00qetqZ9HLuXd3QQNT6g2lg+v61B70hKTslT/HZNZFIS+pyKO91Fanro512lLYfcuu36QQwvL8PJbxfy2g6Vd/4ZdRtv9bN+Ja+PlIS1i5PjDzFWvRVduQuPV3pc7ftyJBIzmHtsptxUMEpxX/o4eLLySJsN+q9iyM1JnvEDh7iVCE77dIc9SICw+fytZqsy/KlPahdUUEYPbr7yOuC8+XVWiPbU8oNmtdzcjrJtt7ayK2vzzHrQVr5tdMujwk5iRlc1JwwhyPTW7Ndg10Lcl5/i9YlBj2zyVFfptduvZnxDO95vYyOesnoWJoUs70kLoeMJFSSuj7aaUep+6FCVFOmuIZFinZT3d+HEtevCb38UmuV/JG47vq1bse3dPWRmrB2eXzsHD94jWBu4LSoT4qu9Lm7dmRIJOeYdnnwcbCXZxWo9bq2DdPlWxk6MiaV0u1O92iaXtIy+cJbz/OrziRR6qnOjT5adj5fVf36YE+paqzbSZH28tRNrWpMRTma6kHr9Ztafm21yzr60gZrUn3xX/FELZKnt77tGuxSy3lNTw9igHUH+abro6T+qxQfmdqTqt/bSfpy9KSgF7R/GVHq+kh8vbbGI7kRjzAwHlcqxTWpt93X34dSr18bPueRODcC19V8I33/7OtH1Tq2KprUxw4ajG9h7fLY2DF+sIHTV9kT7RuSTFf6HHrfJnq6hxg587nSGenuQMxEtsuDj4MqGlp+Pv3cB4mKlunMmFR9xcPOtApl7U+pf4wJ/eL55cLbxaiQJsvejNFiQPOX+MlNnr5lOk/TMI6DuOerrl9ORXBTjFVnMqAb0xL1dew1P7ITOFSaa1U5wvWgm/pNL7922mWAvhyA1aS/J1qYin3prVvSyjmX76tn4GyC2qglWz7SoxjEWl0DI2mhHHrn0pKBIfonW/Sp9T51/aYejxR6Ix5xXXb2u+tAowjq70Op269xJI4NSo7AFeu7m/lG6v45r69tPyojLMtLGouPCyStD3Hn1ONbYLs8Jrzjh5HDoQxJRTf6HHrfCD0NJVLOal0j43NYxLbLQ4+DfjmrbKeWo6J7qDYmReM16UQsfS6A/L1ZOoTyEqq0CnV9Z/2i3Er3jcZiIMu/957XFbwT6tvYSrf6Q/3ppVDketvTc3lfRO9p1i/0v2lmtr0/AiKfr7J+hfxe6NZ8x4foC0rb+5eu01/Sjd6e2oY7o/w6Kj9/q6dN9CWkHEF60FH9hsovmJbaZaWcW6H4KpzRZ/10yVD9Ux2++KFKfonlPHzmqIPz6h992P14bDuSk8hsQQsxifKlQKZul6HlCEel+r2Ni7r35/W6aOyn1vvU10s9HmnURjxMww0lAvv7UOr3a1zfrEPqb43OtNSvVZG6f+aNnmxdlq9v+LinC/29IXF9sPzSjm+B7bJTqscPuWup/MnTZ9V412Bwf9qRPofeN1hPA4mVs3J+MP5+LbZdHnoclHLm17JYck7R3zfhv81m8z/9MwAA/Aq4c1ed7+G8xd2h3yk3EJMdJyWUNyWT0au6k8iDci7lOCWUzPn9lU32FwDgnPhd4wcA1RzpBjwAAACSoNcu+dJv1EYX3WwlHs25lOOEUKmPTTfeAQAAcM7AmAQAgHOmp3Z/225fnrOiR865TbYBSMucSzlOhdWEeEfDwfwe0RcAAAA7gTF5dqh3z+R51DuPGvn6pw3kcpqE1tv/o//zfe4eZ1O/Mfqs3ylH23Ua6hjRgndGbbqr68EIKQfaeVPM+p7RQm6N709v/W1yRnm9R3B5u5Lfsdcb5OLn2J8PuGDNJAAAAAAAAACAaBCZBAAAAAAAAAAQDYxJAAAAAAAAAADRwJgEAAAAAAAAABANjEkAAAAAAAAAANHAmNxLeUepyUp/dZaccHnXT/TPfnbs8gW6wOjhRLSmEyZ1Oc5FLqBV1E6yCXVkNRHX+0dPBx4MkpejEWpc/3doIYD0nPU85xfo6RmPgx0Zk6egNPyMesv5zcYcz2f7wq2U5e2gfnt39KGf+W2sP2vML+jcjgLIGQAAANhLK/McAJpTbUxKz57lCbGOs47SrV5pQQOa/5a3YP+28gLQBmawfz7tF72nLse5yAUAACIw723ND2RNpcdnpxyjnFOPg1akumt7rNqYHD5LL8iGXxY9EL8P5vQlfz/nKJ2oo59P8e8l/T2Nt3k35reVFwAAAACgLdiQ7C9vzJx5s3mjcTalPgzKtBg7JT+EvULnLOc1Pf0TRuQt0UwaZt2TLM1Vel9kxamUNeMdsMzlrYdmRAvxezbtb88TRznNTQvMnONZ+yAtc/V50QN0iHUSTlnFUfIOBD6f+s7No9bXzy9qrrW9L39lrttiwwl5vm35QuvXld+OOrO8L/lRknNCmpej/HxB9cvE6EtFezNUyS9ar6rbZcjzbcsXKud07Hq+0j0D60Odt73OrrZYvIZ9lGUozq7u/2Lw6EHpuiHl0Of46keVL/J6gl31EarP6mggH9ez7btvSH3IZ1Of79UXScX1zLVC26UjO32+TZCctSyC6jcK9/n2XacoG29f4NEDb7W5mLp2++PE7U2SphxR7aNUDtW/lompj/0ovQgY32LZ1y6j20c1oXLedZ5bv727D9p83NHWRz+ke578Z0t6b6xbVSTS52g5h943VE/r0KO72biZnKvapf4+5TgYymrSp+XNl6Nb3ZJ2zSR7XIRC0Jv2DnBS92JkKkA2rNw7I34fzIUwLG/Cx50tFlbcPk0vt2v4vuZE075vwMjk5/3vmT6Xo6jis9vICrM6rv40Ex8saLRLAaRyjOjTKsOX6CQWoxafT7O8faCLLxUp5vvJ6wrhDIT8H0v33kNMeQOIr1/ReRTWaM7ouyQTcd4t0Yt1HSXnmh1jAFHliNKDUAL1paK9KcLlF6ZXEe0yaX/QAu7zqYLUa7+Ba1m2Zc4PJe/B/IWKxY3p/wJgPe1PiYyM1X3FncVHH9t7h5Sjd0U3cj707rTVNb0vRT8yuKGrmOvlhOhzaDkikAP/aEHj/L58XL86co6pj5D2G369oHYZ0w9VyXl4L+9Vrt8VPfI4MZ7VkDOXN6S/Z3gc6tP3bPt87Ggq1UedcYHHPFHXorLF39ipZonbmyRxOULbh7innGiaa6r+tUhMfXRDWLtMOB/KCZEz456nFCZQXzL6blXQ6fU56fwgWE/r0yzbLqBdtjUOBjB8PsD8KJLkG/Bwwzfpr8NrqRyfP/GtZv30ILriMb1ZubS9uxelyK+e1sCdojm3R1eylr/jOkYrVM6KIy4q+omtMm29AGt6up1SJu5pVyhPFGW/8+DpkFM8nySj7JIH8x79veTfG6xzDC5vC6x/iJv6+Np+9iE9l+5Z/qx3NxNPmtGyfddeBTX0IJRAfalub6HyC9Or2HaZqj9oi8LziQ6fnZnttt8i66dbmtKcXpyBIbr/q2D9vhQ1PKaZuU+P7l7EREB8Gj+p2eH1Xb8Tj6HjWf1+o0pf0pZDICY1t8JAYkeGJWpx7+fC76nHo/DrhbTL+H5ov5zz53XqV66rF39b6LMDCe7vFen6NQttSEqnlSV3JnV7y0ldjqrrrR6FHgzK/UmJyPo4OIHtMqx9xFNdb4rCefvGD4v1NzvuB3TRoqDT63Pa+UGwntbF6M+90Oo6hLTL9sbBUySxMTkm3ziTRY/y2rIfXzuKoBX586c8ODo3VhGAljZ70Moy8PQGw2uPcglSPl/hWrb345To/SWuSq/n/FSooQehhOlLqvamqNar2HaZ9vnSU36+3gVPoj1Ge1B9RKIHvPKgE9//HRw5wSpOeHNDz1fnYRxeX8rGqY/U41Hc9SrbZXQ/VC1nn0GzehWmpJgA1pqrR/X3LejB+9aQLHv022pvqctRdb0VySq6uXL6Ew9HPv6GtUtF9bgVS2i9lc/bNX4YVhPiwHi96H4o7ehzuvlBhJ7GIKOdOquu37KxmtPKOHiaJI9MpmFN0nmzGG1TLvUhG2LNiMBqUrwWH941DIFcYreaBgzpWaeo8YCm6sOfomRy882RMre+OceuB+nk1067/J1so0lFTzuTXs69qxsaiFp/MA1M37/2oDckZafkKT67JhJpSV0OFSWoInV9tNOO0vZDbv02nQCG9/ehhPdrGU2n6hu/jLrt17oZ39LXR0rC2uWJkadYi77Kjtylpyt97rYdkZVKKrPtbpbUF/eu6ywJa5fdjIPHyJEakz1iBw9xqpClHNujXkSA84zdazXJO/alPag8bRBGj+4+8rrgfHm11shu/NygeT0np5Ns6y1tbn1TjlkP0sqvnXZ5TMhJzOAircfUg0xvzXZNKlqQ8/pbtC4x6JlNjvoyvfarQZ0N73m9jI56yehYmhSzvSQuh4wkVJK6PtppR6n7oUJUU6a4hkWKdlPd34cS168JvfxSa5X8kbju+rVux7d09ZGasHZ5fOwcPzhqlhuSLeqToit97q4d+WiS1hvTLjsZB4+QjoxJpXS70z2appe0TL7w1vP8qjNJlHqq1zUcLTufr6p+fbCnVDXW7aRIe3nqplY1pqIcTfWg9fpNLb+22mUdfWmDNak1+3/FE7VInt76tmtwTS3nNT09iImMO8g3XR8l9V+l+MjUnlT93k7Sl6MnBb2g/fON1PWR+HptjUdyIx5hYDyuVIprUm+7r78PpV6/NnzOI3FuBK6r+Ub6/tnXj6p1bFU0qY8dNBjfwtrlsbFj/GBDktMuD2JIMl3pc+h9m+hpDCpS6kv/l3UinZHuDsRMZLs8+Dh4nHRmTKq+4mFnWoWy9qfUPwY3WQm98HYxKqTJsjdjtBjQ/CV+cpOnb5nO03RAx0Hc81XXL6d8uCnGqjMZ0I1pifo69pof2QkcKs21qhzhetBN/aaXXzvtMkBfDgBvt707WpiKfemtW9LKOZfvq2fgbILaqCVbPtKjGHyTr4Ep0UI59M6lJQND9E+26FPrfer6TT0eKfRGPOK6HFRx14FGEdTfh1K3X+NIHBuUHIEr1nc3843U/XNeX9t+VEZYlpc0Fh8XSFof4s6px7fAdnlMeMcPI4dDGZKKbvQ59L4RetqA1YTbkT+bQq1rZHwOi9h2eehx8DipNiZF4zXpRCx9VhT5e7N0COUlVGkV6vrO+kWZ//xGY0/+tdsJdgLvhPo2ttKt/lB/eik6jHrb03N5X0TvadYv9L9pZra9PwIin6+yfoX8XujWfMeH6HNL2/uXrtNf0o3entqGO6P8Oio/f6unTfQlpBxBetBR/YbKL5iW2mWlnFuh+Cqc0Wf9dMlQ/VPpreKHKvkllvPwmaMOzqt/9GH347HtSE4iswUtxCTKO2gnbpeh5QhHpfq9jYu69+f1umjsp9b71NdLPR5p1EY8TMMNJQL7+1Dq92tc36xD6m+NzrTUr1WRun/mjZ5sXZavb/i4pwv9vSFxfbD80o5vge2yU6rHD7lrqfzJ02fVeNdgcH/akT6H3jdYTwOx5ZIfI+IMFv94rpwfjL9fi22Xhx4Ht3YZt1utYXnba/gOy7r8t9ls/qd/BgCAXwF37mqyfThvcXfod8oNxGTHSQnlTclk9KruJPKgnEs5Tgklc35/ZZP9BQA4J37X+AFANUe6AQ8AAIAk6LVLvvQbtdFF2y/QTsS5lOOEUKmPTTfeAQAAcM7AmAQAgHOmp94pt92+PGdFj5wik2wDkJY5l3KcCquJTKGq/+JvAAAAvwEYk2cHpyXp3Ol9R0d51d0BuZwmofX2/+j/fJ+7x9nUb4w+63fK0XadhjpGtOCdUZvu6nowQsqBdt4Us75ntJBb4/vTW3+bnFFe7xFc3q7kd+z1Brn4OfbnAy5YMwkAAAAAAAAAIBpEJgEAAAAAAAAARANjEgAAAAAAAABANDAmAQAAAAAAAABEA2MSAAAAAAAAAEA0MCYBODjlncomK/1VV6yf6J/9TIfeJc3cfyKkU0btMOn/DqTj18q5Qv9COXb5nUv9Ji/HaiKu94+eDrw15HHVhxqX/h1aCCA9XY/nrfIL9DTReHRIYEwCcFC4I9SvMthszPHc9Yvcenf0oZ/lbaw/A2cGJovHBeoDANACGM/Bgak2Jl0PR350HkrJWdPTv2N6niPDqr+yiNRkplS3+YF3+KRn9UoLGtC80dvV83pzvFZH6M1SnndLp3Z5/83g94wXpP82do0x5jhAxOgc9M8jRwyLAJwGpbES86+WcOe9h89IqCTpeHSY8lYbk5aHQx1fNB/o78ARo43sW6LZzgrjl4DbdZsfb8TOrMHN1Ym8zPx0WP98in8v6W8SwS7oweoV1u9LyvTP3aM6sP6UaP5l69aMvm8xSAKLwhijx5fBnL7MZx/kfW8+2MJpmqqxaZmp4/r1CCdKAIACbEj2lzdWnyfmYNmU+jAoE8PzkmJm2NecaNo/V8fb4cqbNs21yjMq1yX403qUV6btgU8bWOb5yveTzyEbsGPNeyXvWvzHo5CrSZ+WN2Ji8XEXbRCunx5k9OzmKvIvo+u3uj4kIR53eY76+6KHz3dNt9523DeYLvRgQPP5mLLlux5s1iRsSZq/zcU3n/RTKE+gnBOymogOjJ/xyzUEhvRs66Rbt5WDp1OWoHa5q7zV9RbXH4Ry2Ptu2wPXCVE27W+vJw5/mmVRziHnHEKvFAnlF6N/nn5IHb5y75ZfvfrYh7jXg7iSMMBfHKt7+LzLEA+p3/1yXk3EZzvlpf42viyMe999ehVQjpDxw4cez8qZHm3ofZpyxPUbbjmUPpaJqY/9KN135amvH1QpOzB1pQ/7WlJu/MzbcvDXph3ua/M7CJXzrvPc+u3dfThztSHds1ctW9J7Y92qIpE+R8s59L6helqNnJewo9JaV9S7e5EOzMVDvB5Iqtql/t7XppVsrHK716qhmzatlHcHCY1JoUC3RC/a+lUW8IAWI0tQw3tZiO0EOGdFj9OMaDxr0QPNCt6n6WWAhc4eIaGw9KbLwknni5FHQUb0aXmCVXk91+uA4fOGPmoJs0FdRNVvaH0E6JUhk3/f/57pcznKIT4rRML4vqKBFdYsNoiWheiBNdD1WQ6iKxw16TDWP8JcFFxd0zgfbNbvtKQbKtv/EXqfCiETntsG6ZAVlape28Fy69P3TNebKMhAtMtiJx1YvzHtN6Q/CKWD+8qJiryXzjhwolflfsKRs7gvGzzF+3agV0xq+YXqH9+3EPnLM3R8DpP98ouvj0Cy78B+JKB+A+Tcu+DOPvSeocT0z4F6Gjx+WHCfPRKdmHwOO9WsDb1PXI7g+Yt2OJtrKn0sElMf3SAn5KKuxnl5+bh+LdXH8vaBLr5Uu2U9lvMEHkOEvB7r1F1o/+yepxQmUF8y+m5V0On1OUzOgfcN1tMQVvTKPjc34271SHJaVqsvC2iXvSu68c6LOQAgbjyw5m1R86Eq2ijvbhIak07EQdC7m4lKz2hpXCs9ulJSLXpb5Doy0W9ft7daRUXbxvTms9Bfy62GOyZz6lBM2sV/nybcs6an2yllooO1B36eJMj+JLHFf0jyqGS9NX3h9RteHyF6ZcGDnrlm/jxWo9GGWFHXyvcII1APhs+FjkbcXYwr286nTvRYwd5L0XkLOawep3Q5K18nVu+TsP6W6bZttOdCuxQd70zIudBJB9VvfPvd3x+E0tV946m6byd61aH8VAr5mGbmvj26e+EsAP9k77D1Jp6FG4KoEemkCpgF7n++MDn3/l6Kf7dZEDJSmd9bt8PL2Hz+yP65Ws6R4wejDUlp5Fv6zbSl96nLUXU9Hi8yTyS7RNLxsgWEsXErZsZcV4WqEmNuseoyyi7Zudkjqba15zhFQtt54Tw9bvn6K5v1N4+iA7poUdDp9TlMzqH3DdbTEDx9knJECDufOzarLwsnpF3q/tmdF3MAQFTx2DNvS0Ir5d1N2jTXAHwd4Eqaz3NK0LZ3oD0A42tR9TZa4T9/nEY9Jt88OMtnDVoJBp5WPrz2KM3J0DxCHFa/sfURjmvA8ASo4Fnu/SW+hTeSEcsR6EHv6oZdgfSwsHU2n+C2J+d9qHWhNuyFtCKxtTcIKrfLUnQkpH6j662iPwilq/tGU3XfbvTqfOTXAtJhpaOli5FuZ7uibxXPFyrn3oWYKuYoL7iYCVptu8ZEOKp/bkHO71tD0jakFW3pfepyVF1vR8TCR8rxsgXKTp7dFOYGdjSoNqH1Vj6vMqq/mhAHxpvMxappR5+r5Rx63wg9rQE7v9Q61Xx+2GIUWDoaivPiXHd9OtQGbZc3qTFpcqPNMSJuD0WGpMajPJrQrsIo1iSdPGaQ3R6ywdYM90Z7XSuQnl3n+bxrJ1pCeYuaeuxC6jeuPsL0KpQhPetJFw+Q6noVKU8VpNaDSmTkT2/iwykU4res1DEz7eh9FSpiYcMyT5W6UUV4/R683jRd3Tcd3ehVThfyY6fNQPQ62w2vdPTugJOBanp096GzHTitTDwdp43VHUMq5SwNDT0h4eyT8Vy0uwXJwILdR0WRvn8OHz+EvKbqG3/Zu9X7tONgKOnrIyUqendm5CnWom+xI3fp6Uqfu21HPCdl5/bDxZeTFVYvClzP7tllULdB2vLuIpkxyQLl9WAczjfpeztymwveTZkCGeZZqk+P2BEkHs56Nvuot/2uL52hHJUJh9c5us9W9o62Rbp1q9X1G14fMXoVjjXpktdSk666ntfUehCHLks+6MgJXk47el+Jjlj45HIYwuq3q3rrVl9S0JFeaTqRn07d5rVsasLQpynxjrPtlrU2cu2NMgLKa3XCqJaz0gM+jz8fXFzJZQWcpibPG1yIM+qQrn+OGz94/atyePkjcd3pfTvjYChpx8uUyAjfCSKNYF/74DWCuSHZet/SlT53NS/Jo+xq/ao9t1b9WrzzK8ruued1o3peLLM/0qRa76SF8u4jkTGprezQVFW5UYvokB5XKgWydes8cfpVvqDWEyNWnUSKFIrDkiYqqams39D6iNSrWrDnVTV+3+RpL0esB6osifU+lFwu00dqd74R4t3z1G9X9da5vqhB3Hf/ODrWq4PLb612S3UnP43XjaWqj8QEy1npQfb9Ltohyd2/ZQQ314vLvw3lwzTon/P+IXL8GD7nkTg3AteR3tcsx278eqfmAFU0qY8d6LVddVBZMDoafjKsSc3lnfbBhmRfZTu0b0gyXelz6H2b6KkPFR0st6M98wi5ARA7D31LcyLbpexXVaqrTHFtfbyvUd4GVBuTq0nRAyV3AnKNDq0c9poVWQm70jD0xiiLkQxru+vc2kB5BabUT+JO66kFteL57RQi9lKMFkI2Ly0tqG2N1LvpVtdvWH3E6lUAQp/dtK/ckI5+FUpHelCMDuwnrd6HIuQiNyfhDUHqro+sZv10W+6Lguq3q/bbdb+h29PioXGaWmd61VG9KbnZ6wFTkKo+VjTx7Ait2oeYS0QvIQmXs4wMLaY0zXeS7v2lS6EXI75xHRL3z/XGD1H+DzYoOQJXNCi70vu042A+Pm/1juu2v7yksfi4QNL6EHfW6eLG+ONySAOqJnoH+ZLh785bjwh+bds0c1JYjRwOZUgqutHn0PtG6Gkgvvt65xGa7bu7fQ6L2HapypMtH+lRGHPtLu1TxJa3CdXG5PCZrl+tfODRp2crdD4t73z1ef0l3ejtgX2ojVqYRGtOxMBnnjE/bEWVaT9vNPac53aWQfCGB29jK+2JX/twKTqCI3nBtuhMt8+lm0O+5sGZeOSenpRGfWX9BtZHrF5VIurthW4L91M7/test2PXg0A5cyedf67WLYgOyHNeMCbNTu8waV/b8oiF3jefhNjXUovJHTmH1m9X9daxvpTakzjq12/C/jSUxPIL1b/hM0djivqXH03mYWnqY0jPL0S31jPxofS+5lKJWDmbKIv2hgt8G/hUEtp+A6k/frBByXWu/tbUcUd6n3ocVDvzbq8nX9/wcU8X+ntD4vpg+b2IhzZzkf43zXQ6dj24njg1udiG/rxeO7u5dokzBn6W0+PlrqXyJ08fU+Ndg8HjeVf9eOB9g/U0FL4vrye37ruvX1PzDsY/j41tl/J62YIWmX9pXyvzsIjyNuG/zWbzP/3zgeFFoeo9VodbFwgOB+oXAHAOqL5MvvzZSW3lTdNktK7u5BoAcLawcaAm74eLNgLQBUl3c41BRcPa3ngHdAXqFwBwFug1Xb60JLUBSItbygMAAABHTjfG5GpCnHo5mN/DW3OOoH4BAOdCT+2KV94VVa81T7YxCgAAAHB6HNSYNPnAo4XcStef/qjeiZLn9+48auSRH5bU5ehKLuH3/f+C6vfYOX45d6P3x/58XQF98XNO+sI7WH7RnLbrV9QxogXv8Np4V1cf5yK/39ZvoLzeI7i8Xcnv2OsNcvFz7M/3e+hwzSQAAAAAAAAAgFOlszWTAAAAAAAAAABOFxiTAAAAAAAAAAAiIfr/A1WGwFvzGDymAAAAAElFTkSuQmCC;" vertex="1" parent="1">
          <mxGeometry x="650" y="136.67000000000002" width="705" height="222.67" as="geometry" />
        </mxCell>
        <mxCell id="bEsx-Dzr36lRBQds6V0_-6" value="" style="endArrow=classic;html=1;rounded=0;exitX=1;exitY=0.5;exitDx=0;exitDy=0;entryX=0;entryY=0.5;entryDx=0;entryDy=0;" edge="1" parent="1" source="bEsx-Dzr36lRBQds6V0_-2" target="bEsx-Dzr36lRBQds6V0_-3">
          <mxGeometry width="50" height="50" relative="1" as="geometry">
            <mxPoint x="450" y="180" as="sourcePoint" />
            <mxPoint x="500" y="130" as="targetPoint" />
          </mxGeometry>
        </mxCell>
        <mxCell id="bEsx-Dzr36lRBQds6V0_-7" value="" style="rounded=0;whiteSpace=wrap;html=1;fillColor=none;strokeColor=#d79b00;sketch=1;curveFitting=1;jiggle=2;" vertex="1" parent="1">
          <mxGeometry x="360" y="110" width="210" height="20" as="geometry" />
        </mxCell>
        <mxCell id="bEsx-Dzr36lRBQds6V0_-10" value="" style="endArrow=classic;html=1;rounded=0;exitX=1;exitY=0.5;exitDx=0;exitDy=0;entryX=0;entryY=0.25;entryDx=0;entryDy=0;" edge="1" parent="1" source="bEsx-Dzr36lRBQds6V0_-7" target="bEsx-Dzr36lRBQds6V0_-4">
          <mxGeometry width="50" height="50" relative="1" as="geometry">
            <mxPoint x="610" y="150" as="sourcePoint" />
            <mxPoint x="660" y="100" as="targetPoint" />
          </mxGeometry>
        </mxCell>
      </root>
    </mxGraphModel>
  </diagram>
</mxfile>
